<svg xmlns="http://www.w3.org/2000/svg" viewBox="0 0 43.33 31.48"><defs><style>.cls-1{fill:#eff8ff;}.cls-2,.cls-3,.cls-4{fill:none;stroke-linecap:round;stroke-miterlimit:10;stroke-width:1.5px;}.cls-2{stroke:#fcd648;}.cls-3{stroke:#9246cc;}.cls-4{stroke:#ff6a00;}.cls-5{fill:#fff;}.cls-6{fill:#0088fd;}</style></defs><title>Ativo 2</title><g id="Camada_2" data-name="Camada 2"><g id="Camada_1-2" data-name="Camada 1"><circle class="cls-1" cx="21.17" cy="14.13" r="14.13"/><line class="cls-2" x1="26.38" y1="10.5" x2="35.2" y2="10.5"/><line class="cls-2" x1="20.9" y1="10.51" x2="23.38" y2="10.5"/><line class="cls-2" x1="36.09" y1="17.92" x2="42.39" y2="17.92"/><line class="cls-2" x1="0.75" y1="14.2" x2="10.05" y2="14.2"/><line class="cls-3" x1="8.64" y1="6.77" x2="21.15" y2="6.77"/><line class="cls-2" x1="2.96" y1="6.78" x2="5.64" y2="6.78"/><line class="cls-3" x1="24.73" y1="14.19" x2="34.4" y2="14.19"/><line class="cls-3" x1="13.05" y1="14.2" x2="21.14" y2="14.19"/><line class="cls-3" x1="38.2" y1="10.5" x2="42.58" y2="10.49"/><line class="cls-4" x1="6.64" y1="10.51" x2="17.57" y2="10.51"/><line class="cls-2" x1="19.12" y1="21.67" x2="10.3" y2="21.68"/><line class="cls-2" x1="34.6" y1="21.66" x2="22.12" y2="21.67"/><line class="cls-4" x1="7.3" y1="21.68" x2="2.93" y2="21.68"/><line class="cls-3" x1="39.86" y1="21.66" x2="37.93" y2="21.66"/><line class="cls-4" x1="37.4" y1="14.19" x2="39.45" y2="14.18"/><line class="cls-4" x1="25.15" y1="6.77" x2="41.08" y2="6.76"/><line class="cls-3" x1="4.96" y1="17.94" x2="19.16" y2="17.93"/><line class="cls-4" x1="22.16" y1="17.93" x2="33.09" y2="17.93"/><circle class="cls-5" cx="21.17" cy="14.13" r="10.22"/><path class="cls-6" d="M26.29,9.17l-1.7.69A5.54,5.54,0,0,0,23.06,9L22.8,7.16a7.13,7.13,0,0,0-3.27,0L19.27,9a5.35,5.35,0,0,0-1.52.88l-1.7-.68A7.06,7.06,0,0,0,14.41,12l1.44,1.13a6.4,6.4,0,0,0-.07.88,5.05,5.05,0,0,0,.08.88L14.41,16a6.86,6.86,0,0,0,1.64,2.83l1.7-.68a5.4,5.4,0,0,0,1.53.88l.25,1.81a6.88,6.88,0,0,0,1.64.19,7.29,7.29,0,0,0,1.64-.19l.26-1.82a5.49,5.49,0,0,0,1.52-.88l1.7.69A7.16,7.16,0,0,0,27.93,16L26.48,14.9a4.88,4.88,0,0,0,0-1.76L27.93,12A7,7,0,0,0,26.29,9.17Zm-5.12,6.92A2.07,2.07,0,1,1,23.23,14,2.07,2.07,0,0,1,21.17,16.09Z"/><path class="cls-6" d="M32.8,23.36a1.7,1.7,0,0,0-1.49-.46l-1.52-1.51a11.43,11.43,0,1,0-1.36,1.35L30,24.26a1.66,1.66,0,0,0,.46,1.48L35.67,31A1.68,1.68,0,1,0,38,28.6ZM12.05,14.14a9.12,9.12,0,1,1,9.12,9.11A9.14,9.14,0,0,1,12.05,14.14Z"/></g></g></svg>