<?xml version="1.0" encoding="utf-8"?>
<!-- Generator: Adobe Illustrator 24.0.1, SVG Export Plug-In . SVG Version: 6.00 Build 0)  -->
<svg version="1.1" id="Camada_1" xmlns="http://www.w3.org/2000/svg" xmlns:xlink="http://www.w3.org/1999/xlink" x="0px" y="0px"
	 viewBox="0 0 204.3 145.1" style="enable-background:new 0 0 204.3 145.1;" xml:space="preserve">
<style type="text/css">
	.st0{fill:#EFF8FF;}
	.st1{fill:#FFFFFF;}
	.st2{fill:#EFEFFF;}
	.st3{fill:#FCD648;}
	.st4{fill:#FF6A00;}
	.st5{fill:#9246CC;}
	.st6{fill:#0088FD;}
	.st7{fill:url(#SVGID_1_);}
	.st8{fill:none;stroke:#FFFFFF;stroke-width:2;stroke-miterlimit:10;}
	.st9{fill:#F8F8FF;}
	.st10{fill:none;stroke:#9246CC;stroke-width:2;stroke-miterlimit:10;}
	.st11{fill:none;stroke:#FF6A00;stroke-width:2;stroke-miterlimit:10;}
	.st12{fill:none;stroke:#FCD648;stroke-width:2;stroke-miterlimit:10;}
</style>
<title>Ativo 2</title>
<g id="Camada_2_1_">
	<g id="Modo_de_isolamento">
		<ellipse class="st0" cx="102.2" cy="63.1" rx="102.2" ry="63.1"/>
		<rect x="21.5" y="41" class="st1" width="161.9" height="87.5"/>
		<rect x="25.5" y="46.5" class="st2" width="107.7" height="4.4"/>
		<rect x="25.5" y="54" class="st2" width="95.7" height="4.4"/>
		<rect x="25.5" y="112.9" class="st2" width="84.2" height="4.4"/>
		<rect x="25.5" y="120.4" class="st2" width="64.3" height="4.4"/>
		<rect x="25.5" y="65.6" class="st2" width="64.3" height="4.4"/>
		<rect x="25.5" y="72.8" class="st2" width="64.3" height="4.4"/>
		<rect x="25.5" y="85.3" class="st2" width="64.3" height="22.4"/>
		<rect x="145.7" y="46.5" class="st2" width="31.8" height="57.8"/>
		<rect x="145.7" y="110.1" class="st2" width="31.8" height="14"/>
		<path class="st3" d="M65.3,59.2h74.1c1.3,0,2.4,1.1,2.4,2.4v31.1c0,1.3-1.1,2.4-2.4,2.4H65.3c-1.3,0-2.4-1.1-2.4-2.4V61.6
			C62.8,60.3,63.9,59.2,65.3,59.2z"/>
		<path class="st4" d="M58.9,63.3h86.8c1.8,0,3.2,1.4,3.2,3.2v42.2c0,1.8-1.4,3.2-3.2,3.2H58.9c-1.8,0-3.2-1.4-3.2-3.2V66.4
			C55.7,64.7,57.2,63.3,58.9,63.3z"/>
		<path class="st5" d="M52.6,67.3h99.5c2.2,0,4,1.8,4,4v53.2c0,2.2-1.8,4-4,4H52.6c-2.2,0-4-1.8-4-4V71.3
			C48.6,69.1,50.4,67.3,52.6,67.3z"/>
		<path class="st6" d="M46.2,71.4h112.2c2.6,0,4.7,2.1,4.7,4.7v64.3c0,2.6-2.1,4.7-4.7,4.7H46.2c-2.6,0-4.7-2.1-4.7-4.7V76.1
			C41.5,73.5,43.6,71.4,46.2,71.4z"/>
		<path class="st1" d="M48.4,80.1h107.9c1.8,0,3.2,1.4,3.2,3.2v55.4c0,1.8-1.4,3.2-3.2,3.2H48.4c-1.8,0-3.2-1.4-3.2-3.2V83.3
			C45.2,81.5,46.6,80.1,48.4,80.1z"/>
		<path class="st3" d="M69.5,86.6c0.4,0,0.7,0.3,0.7,0.7V104c0,0.4-0.3,0.7-0.7,0.7H52.7c-0.4,0-0.7-0.3-0.7-0.7c0,0,0,0,0,0V87.3
			c0-0.4,0.3-0.7,0.7-0.7L69.5,86.6 M69.5,84.6H52.7c-1.5,0-2.7,1.2-2.7,2.7V104c0,1.5,1.2,2.7,2.7,2.7c0,0,0,0,0,0h16.8
			c1.5,0,2.7-1.2,2.7-2.7V87.3C72.2,85.8,71,84.6,69.5,84.6C69.5,84.6,69.5,84.6,69.5,84.6z"/>
		
			<linearGradient id="SVGID_1_" gradientUnits="userSpaceOnUse" x1="102.17" y1="-31.9" x2="102.17" y2="69.05" gradientTransform="matrix(1 0 0 -1 0 146)">
			<stop  offset="0.36" style="stop-color:#FFFFFF"/>
			<stop  offset="0.38" style="stop-color:#FFEFE3"/>
			<stop  offset="0.43" style="stop-color:#FFCCA8"/>
			<stop  offset="0.47" style="stop-color:#FFAE75"/>
			<stop  offset="0.52" style="stop-color:#FF964B"/>
			<stop  offset="0.56" style="stop-color:#FF832A"/>
			<stop  offset="0.6" style="stop-color:#FF7513"/>
			<stop  offset="0.64" style="stop-color:#FF6D05"/>
			<stop  offset="0.67" style="stop-color:#FF6A00"/>
		</linearGradient>
		<path class="st7" d="M154.3,141.8H50v-28.7c0-1.5,1.2-2.7,2.7-2.7c0,0,0,0,0,0h98.9c1.5,0,2.7,1.2,2.7,2.7v0L154.3,141.8z"/>
		<path class="st6" d="M80.1,84.6h16.8c1.5,0,2.7,1.2,2.7,2.7v16.8c0,1.5-1.2,2.7-2.7,2.7H80.1c-1.5,0-2.7-1.2-2.7-2.7V87.3
			C77.4,85.8,78.6,84.6,80.1,84.6z"/>
		<path class="st5" d="M124.3,86.6c0.4,0,0.7,0.3,0.7,0.7V104c0,0.4-0.3,0.7-0.7,0.7c0,0,0,0,0,0h-16.8c-0.4,0-0.7-0.3-0.7-0.7
			c0,0,0,0,0,0V87.3c0-0.4,0.3-0.7,0.7-0.7L124.3,86.6 M124.3,84.6h-16.8c-1.5,0-2.7,1.2-2.7,2.7V104c0,1.5,1.2,2.7,2.7,2.7
			c0,0,0,0,0,0h16.8c1.5,0,2.7-1.2,2.7-2.6c0,0,0,0,0-0.1V87.3C127,85.8,125.8,84.6,124.3,84.6L124.3,84.6z"/>
		<path class="st1" d="M58,117.5h20.1c0.6,0,1.1,0.5,1.1,1.1v11.6c0,0.6-0.5,1.1-1.1,1.1H58c-0.6,0-1-0.5-1-1.1v-11.6
			C57,118,57.5,117.5,58,117.5z"/>
		<path class="st4" d="M151.6,86.6c0.4,0,0.7,0.3,0.7,0.7V104c0,0.4-0.3,0.7-0.7,0.7l0,0h-16.8c-0.4,0-0.7-0.3-0.7-0.7V87.3
			c0-0.4,0.3-0.7,0.7-0.7L151.6,86.6 M151.6,84.6h-16.8c-1.5,0-2.7,1.2-2.7,2.7V104c0,1.5,1.2,2.7,2.7,2.7c0,0,0,0,0,0h16.8
			c1.5,0,2.7-1.2,2.7-2.7v0V87.3C154.3,85.8,153.1,84.6,151.6,84.6C151.6,84.6,151.6,84.6,151.6,84.6z"/>
		<line class="st8" x1="85.7" y1="122.4" x2="131.6" y2="122.4"/>
		<line class="st8" x1="85.7" y1="126.3" x2="142.8" y2="126.3"/>
		<path class="st9" d="M89.3,96.9l1.5,3.3c0.2,0.4,0,0.8-0.3,1c0,0,0,0,0,0l0,0c-0.4,0.2-0.8,0-1-0.4c0,0,0,0,0,0L88,97.5l-2.2,1.1
			c-0.2,0.1-0.4,0-0.5-0.2c0,0,0-0.1,0-0.2l0.1-7.9c0-0.2,0.2-0.4,0.4-0.3c0.1,0,0.2,0,0.2,0.1l5.4,5.2c0.1,0.1,0.1,0.4,0,0.5
			c0,0-0.1,0.1-0.1,0.1L89.3,96.9z"/>
		<line class="st10" x1="108.8" y1="101.7" x2="120.8" y2="101.7"/>
		<line class="st10" x1="108.8" y1="98.2" x2="115" y2="98.2"/>
		<line class="st11" x1="136.1" y1="98.2" x2="148.1" y2="98.2"/>
		<line class="st11" x1="136.1" y1="101.7" x2="142.4" y2="101.7"/>
		<line class="st12" x1="54" y1="101.7" x2="63" y2="101.7"/>
		<line class="st12" x1="54" y1="98.2" x2="60.2" y2="98.2"/>
		<path class="st6" d="M184,22.6H20.3c-2.7,0-4.8,2.2-4.8,4.8v101.7c0,2.7,2.1,4.8,4.8,4.9c0,0,0,0,0,0h18.2v-6H22.1
			c-0.4,0-0.6-0.3-0.6-0.6V41h161.3v86.4c0,0.4-0.3,0.6-0.6,0.6l0,0h-16v6H184c2.7,0,4.8-2.2,4.8-4.8l0,0V27.4
			C188.8,24.7,186.7,22.6,184,22.6L184,22.6z M28.7,35.4c-1.8,0-3.3-1.5-3.3-3.3c0-1.8,1.5-3.3,3.3-3.3s3.3,1.5,3.3,3.3
			C32,33.9,30.5,35.4,28.7,35.4L28.7,35.4z M39.7,35.4c-1.8,0-3.3-1.5-3.3-3.3c0-1.8,1.5-3.3,3.3-3.3c1.8,0,3.3,1.5,3.3,3.3
			C43,33.9,41.6,35.4,39.7,35.4L39.7,35.4z M50.7,35.4c-1.8,0-3.3-1.5-3.3-3.3c0-1.8,1.5-3.3,3.3-3.3c1.8,0,3.3,1.5,3.3,3.3
			C54,33.9,52.6,35.4,50.7,35.4L50.7,35.4z"/>
	</g>
</g>
</svg>
