<svg xmlns="http://www.w3.org/2000/svg" viewBox="0 0 139.02 139.16"><defs><style>.cls-1{fill:#eff8ff;}.cls-2{fill:#9246cc;}.cls-3{fill:#fcd648;}.cls-4{fill:#ff6a00;}.cls-5{fill:#0088fd;}.cls-6{fill:#fff;}</style></defs><title>Ativo 3</title><g id="Camada_2" data-name="Camada 2"><g id="Modo_de_isolamento" data-name="Modo de isolamento"><path class="cls-1" d="M115.11,115.25c-29.83,29.83-78.42,29.59-96.85,11.15s.27-48.08,30.1-77.9S107.83,0,126.26,18.4,144.93,85.43,115.11,115.25Z"/><path class="cls-2" d="M99.16,107.24c-3.8,11.81-15.43,7.87-15.27.64.18-8.3-3.36-11-8.64-7s-10.2-3-9.38-8.69,5.72-10.49,9.81-17.38c12.83-6.13-21-16.67,10-9.15,7.57,1.83-2.44,22,10.21,18.91s14.81-1.32,18.69,5.58.42,16-6.37,12.44C102.7,99.67,101.1,101.21,99.16,107.24Z"/><path class="cls-3" d="M63.19,10.46c-5.46-12,7.45-13.3,14-5.82C82.3,10.4,84.94,18,92.15,13c6.18-4.3-.44,11.53-.43,18.42s-2.16,3.87,13.83,4.49c10,.38,7.56,24.35-12.42,21.59C77.41,55.34,85,30,70.57,35.85s-17.28,4.13-23-3.36S42,15.88,51.1,15.65C56.83,15.5,66.65,18.06,63.19,10.46Z"/><path class="cls-4" d="M107.29,18.44c12.95-12.21,24.49,2.64,17.73,9.4-7.78,7.77-6.89,13.63,1.82,14.64s7,12.18,1,16.88-11.65,6.91-5.64,19.23c4.61,9.46-14.77,23.59-37.58-12-5.56-8.67,21.75-10.38,6.82-19s-14.65-20.7-12-30.84S93.65,1.08,96.88,10.68,100.57,24.79,107.29,18.44Z"/><path class="cls-5" d="M102.46,56.88c17.78,44.51-44.89,78.37-62.93,70.63-17.32-7.43,11.29-25.56-18.66-38C-8.76,77.13-5.88,38.62,23.43,26.91S90.75,27.57,102.46,56.88Z"/><circle class="cls-6" cx="21.25" cy="56.04" r="9.21"/><circle class="cls-6" cx="45.86" cy="41.21" r="9.21"/><circle class="cls-6" cx="73.97" cy="50.4" r="9.21"/><circle class="cls-6" cx="86.06" cy="76.73" r="9.21"/><circle class="cls-6" cx="67.54" cy="99.95" r="9.21"/><circle class="cls-6" cx="40.85" cy="81.78" r="6.66"/></g></g></svg>