<svg xmlns="http://www.w3.org/2000/svg" viewBox="0 0 203.97 88.81"><defs><style>.cls-1{fill:#0799d8;}.cls-2{fill:#28c2f6;}.cls-3{fill:#9246cc;}.cls-4{fill:#632a98;}.cls-5{fill:#fcd648;}.cls-6{fill:#dc3d01;}.cls-7{fill:#ff6a00;}</style></defs><title>Ativo 1</title><g id="Camada_2" data-name="Camada 2"><g id="Modo_de_isolamento" data-name="Modo de isolamento"><path class="cls-1" d="M98.44,81.73A24.42,24.42,0,0,1,94,83.1a27.48,27.48,0,0,1-1.77-2.25A22.79,22.79,0,0,0,98.44,81.73Z"/><path class="cls-2" d="M94,83.1l-.88.16a19.83,19.83,0,0,1-6.29.06,15.79,15.79,0,0,1-4.93-1.62,15.61,15.61,0,0,1-7.27-8.59c-2.5-6.6-2.56-13.69.37-19.27A47.52,47.52,0,0,0,76.35,64c.13.59.28,1.17.46,1.74,0,0,0,.09,0,.14s0,.1.05.15l.06.2c0,.07.05.15.08.22.1.3.21.59.32.89a1.22,1.22,0,0,1,.07.17l.09.22.09.21a1.54,1.54,0,0,0,.08.19,1.47,1.47,0,0,0,.1.22l.09.21.39.8.1.2c0,.07.07.14.11.2.17.33.36.65.55,1l.18.3h0l.18.29.19.29h0l.19.28c.15.22.29.42.45.63l.34.45.18.24.1.12.14.17a.52.52,0,0,0,.1.11,1.59,1.59,0,0,0,.2.24l.18.21c.31.36.64.7,1,1l.21.21h0l.23.22,0,0,.21.19.21.2.09.08.18.16,0,0,.5.42,0,0,.24.2.25.19.31.24.21.15.09.07.22.15,0,0,.27.18a3.28,3.28,0,0,0,.31.2l.2.14.06,0,.26.16,0,0,.52.31.14.08.53.29.14.08.17.09.18.09.86.41.18.08.24.1.29.12.36.15.17.07.34.12.24.09.33.11.16,0,0,0,.35.11.37.11c.19.27.39.53.58.78a.91.91,0,0,1,.11.16s0,0,0,0l.13.17.06.08h0l.16.2.29.36.16.18Z"/><path class="cls-3" d="M94.34,51.2C85.78,56,82.08,64.66,88.81,75.47c1.15,1.84,2.27,3.7,3.45,5.38A22.73,22.73,0,0,1,76.35,64,47.52,47.52,0,0,1,75,53.84a17.43,17.43,0,0,1,7-7.11,19.37,19.37,0,0,1,20.92,1.19A26.61,26.61,0,0,0,94.34,51.2Z"/><path class="cls-4" d="M102.92,47.92a19.39,19.39,0,0,1-1.87,32.53,28.64,28.64,0,0,1-2.61,1.28,22.79,22.79,0,0,1-6.18-.88c-1.18-1.68-2.3-3.54-3.45-5.38C82.08,64.66,82.4,56.07,91,51.23,93.77,49.65,100.06,48.39,102.92,47.92Z"/><path class="cls-5" d="M120.19,69.14a20.82,20.82,0,0,1-6.34,11.36,23.37,23.37,0,0,1-2,1.71,33.4,33.4,0,0,1-3.7,2.54,14,14,0,0,1-6.61,2.18c-3.1.07-5.47-1.51-7.53-3.83a24.42,24.42,0,0,0,4.41-1.37h1.65l.26,0,.28,0,.17,0,.37,0,.16,0h0l.53-.08.25,0h0l.25,0h0l.18,0,.18,0,.37-.08.32-.06.31-.08.19,0,.57-.15.24-.06.28-.08.17,0,.19,0,.25-.08.25-.08.23-.07.25-.08.39-.14.2-.07.17-.06c.4-.15.8-.3,1.19-.47l.48-.2.21-.1.27-.12.25-.12.11,0,.18-.09.24-.12h0l.24-.12.16-.09.32-.16.63-.36.33-.19.29-.18.08,0,.23-.14.08-.06.29-.18.28-.19.08,0,.57-.41.26-.19.5-.39h0l.5-.4.48-.41.17-.15.3-.28.23-.21.18-.18.06-.06.19-.19,0,0,.18-.18,0-.06.17-.18,0,0,.18-.19,0,0,.16-.18.16-.18a1.63,1.63,0,0,1,.17-.2l0,0,.15-.18.09-.11.1-.13.12-.15,0,0,.17-.22,0,0,.15-.22.06-.07.11-.16.08-.11.12-.19h0l.16-.25,0,0,.14-.21,0-.08a2.39,2.39,0,0,1,.13-.21l.15-.26C119.81,69.87,120,69.51,120.19,69.14Z"/><path class="cls-6" d="M120.19,69.14a18.36,18.36,0,0,0-1.58-11.2,24.29,24.29,0,0,0-3.34-5.37,16.5,16.5,0,0,0-1.85-1.88,12.34,12.34,0,0,0-10.5-2.77c-.46-.33-.92-.64-1.4-.92a17.35,17.35,0,0,0-1.75-.94,20.5,20.5,0,0,0-2.54-1q-.53-.16-1.08-.3h0a20,20,0,0,0-3.28-.51c-.31,0-.63,0-1-.05A19.23,19.23,0,0,0,82,46.73a17.43,17.43,0,0,0-7,7.11c0-8.86,3.82-16.52,18.55-17,7.4-.25,14.27,1.85,19.48,6.2a3.29,3.29,0,0,0,0,.54,3.15,3.15,0,0,0,3.14,3.14,3.4,3.4,0,0,0,.45,0,26.6,26.6,0,0,1,4.1,7.38A18.48,18.48,0,0,1,120.19,69.14Z"/><path class="cls-7" d="M102.92,47.92c5.88-1,11.56,1.24,15.69,10a18.36,18.36,0,0,1,1.58,11.2c-3,6.11-9.51,10.43-16.72,12a23.48,23.48,0,0,1-5,.55,28.64,28.64,0,0,0,2.61-1.28,19.39,19.39,0,0,0,1.87-32.53Z"/><circle class="cls-5" cx="70.94" cy="49.6" r="2.18"/><circle class="cls-6" cx="89.61" cy="86.95" r="1.86"/><path class="cls-4" d="M116.6,46.68a3.4,3.4,0,0,1-.45,0A3.15,3.15,0,0,1,113,43.57a3.29,3.29,0,0,1,0-.54A25,25,0,0,1,116.6,46.68Z"/><path class="cls-2" d="M119.29,43.57a3.15,3.15,0,0,1-2.69,3.11A25,25,0,0,0,113.06,43a3.14,3.14,0,0,1,6.23.54Z"/><path class="cls-1" d="M141.62,60.83a23.75,23.75,0,0,1-2.15,4.09c-.92-.06-1.87-.18-2.84-.34A22.27,22.27,0,0,0,141.62,60.83Z"/><path class="cls-2" d="M139.47,64.92c-.16.25-.33.5-.51.74a19.56,19.56,0,0,1-4.4,4.49,15.17,15.17,0,0,1-15.84,1.4c-6.44-2.89-11.5-7.87-13.37-13.88a47.73,47.73,0,0,0,8.08,6.21c.51.33,1,.63,1.55.91l.14.07.14.07.18.1.21.1.86.4.17.07.21.09.21.09.2.08.22.08.22.08q.42.17.84.3l.22.07.21.06,1.07.3.34.08h0l.33.08.33.07h0l.33.07.76.12.56.08.3,0h.16l.21,0h.15l.32,0h.27c.47,0,.94.05,1.41.05h1.37l.24,0h0l.65-.06h.05l.31,0,.31,0,.39-.06.25,0,.12,0,.26,0h0l.31,0,.37-.08.23,0h.07l.3-.07h0l.59-.15.16,0,.57-.17.16,0,.19-.06.18-.06c.3-.1.6-.2.9-.32l.18-.07.25-.09.29-.12.35-.15.18-.08.33-.15.22-.11.32-.15.14-.08.05,0,.32-.17.34-.18,1,.15.19,0h.07l.22,0h.1l.26,0,.45,0,.25,0Z"/><path class="cls-3" d="M117.14,42.14c-2.64,9.48.85,18.2,13.25,21.08,2.11.49,4.22,1,6.24,1.36a22.69,22.69,0,0,1-23.2-.7,47.73,47.73,0,0,1-8.08-6.21,17.36,17.36,0,0,1-.1-10,19.37,19.37,0,0,1,15.63-14A26.67,26.67,0,0,0,117.14,42.14Z"/><path class="cls-4" d="M120.88,33.76a19.38,19.38,0,0,1,21.68,24.32,23.43,23.43,0,0,1-.94,2.75,22.27,22.27,0,0,1-5,3.75c-2-.34-4.13-.87-6.24-1.36C118,60.34,112.14,54,114.77,44.56,115.63,41.46,119.19,36.12,120.88,33.76Z"/><path class="cls-5" d="M148.11,36.55a20.93,20.93,0,0,1,3.54,12.52,25.86,25.86,0,0,1-.19,2.61,32.77,32.77,0,0,1-.82,4.42,13.93,13.93,0,0,1-3.13,6.2c-2.15,2.24-4.93,2.81-8,2.62a23.75,23.75,0,0,0,2.15-4.09l0,0,.19-.2.24-.24.18-.2h0l.1-.11.14-.15.16-.19a.27.27,0,0,0,.07-.08l.17-.19.18-.22.11-.13c.08-.1.16-.19.23-.29l.1-.12h0l.33-.43L144,58v0c.05-.07.1-.14.14-.21a0,0,0,0,0,0,0l.11-.15.1-.15.21-.32.18-.27.17-.27.1-.17.3-.51a2.39,2.39,0,0,0,.13-.21l.14-.25.08-.16a1,1,0,0,0,.1-.17l.12-.23.13-.24.1-.21a2.53,2.53,0,0,0,.12-.23l.19-.38.09-.19.07-.16q.27-.59.51-1.17c.07-.16.13-.32.19-.48l.09-.22c0-.1.07-.19.1-.29l.09-.25,0-.12.06-.19.09-.25v0l.09-.26a.84.84,0,0,1,0-.17c0-.12.07-.23.1-.34s.14-.47.2-.7.06-.25.1-.37.05-.22.08-.33a.44.44,0,0,1,0-.1l.06-.26s0-.06,0-.09.05-.22.07-.34,0-.22.07-.33v-.09q.07-.35.12-.69c0-.11,0-.21,0-.32s.06-.42.08-.63h0c0-.21,0-.42.07-.64s0-.42.05-.63,0-.15,0-.22,0-.28,0-.42,0-.2,0-.3v-1a2.18,2.18,0,0,1,0-.25V42c0-.09,0-.18,0-.26v0c0-.08,0-.16,0-.24s0-.16,0-.24,0-.17,0-.26v0l0-.23a.66.66,0,0,0,0-.14s0-.11,0-.17,0-.12,0-.19v0a2.36,2.36,0,0,0,0-.28v0c0-.09,0-.17,0-.26s0-.06,0-.09,0-.13,0-.2a.69.69,0,0,0,0-.13c0-.07,0-.14,0-.22h0l-.06-.3v0c0-.08,0-.16,0-.25s0-.06,0-.09l-.06-.23c0-.1-.05-.2-.07-.3C148.35,37.34,148.24,36.94,148.11,36.55Z"/><path class="cls-6" d="M148.11,36.55a18.48,18.48,0,0,0-9-6.8,24.76,24.76,0,0,0-6.16-1.43,15.58,15.58,0,0,0-2.64,0,12.33,12.33,0,0,0-9.39,5.46c-.55.09-1.1.2-1.64.34s-1.28.35-1.9.57a19,19,0,0,0-2.48,1.11c-.33.17-.66.35-1,.55h0a19.49,19.49,0,0,0-2.68,2c-.24.21-.48.42-.71.64a19.33,19.33,0,0,0-5.24,8.79,17.36,17.36,0,0,0,.1,10c-6.29-6.23-9-14.39,1.08-25.15,5.06-5.41,11.4-8.78,18.17-9.38a4.35,4.35,0,0,0,.34.41,3.17,3.17,0,0,0,4.74-.34,26.48,26.48,0,0,1,8.11,2.32A18.52,18.52,0,0,1,148.11,36.55Z"/><path class="cls-7" d="M120.88,33.76c3.48-4.84,9.06-7.29,18.19-4a18.48,18.48,0,0,1,9,6.8c2.16,6.48.64,14.1-3.32,20.34a22.33,22.33,0,0,1-3.17,3.94,23.43,23.43,0,0,0,.94-2.75,19.38,19.38,0,0,0-21.68-24.32Z"/><circle class="cls-5" cx="99.46" cy="57.56" r="2.18"/><circle class="cls-6" cx="139.07" cy="70.77" r="1.86"/><path class="cls-4" d="M129.68,23.21a3.17,3.17,0,0,1-4.74.34,4.35,4.35,0,0,1-.34-.41A24.69,24.69,0,0,1,129.68,23.21Z"/><path class="cls-2" d="M129.38,19.11a3.14,3.14,0,0,1,.3,4.1,24.69,24.69,0,0,0-5.08-.07,3.14,3.14,0,0,1,4.78-4Z"/><path class="cls-1" d="M108.53,26.75a24.07,24.07,0,0,1,1.37,4.4,25.47,25.47,0,0,1-2.25,1.77A22.71,22.71,0,0,0,108.53,26.75Z"/><path class="cls-2" d="M109.9,31.15c.06.3.11.59.16.89a19.83,19.83,0,0,1,.06,6.29,15.82,15.82,0,0,1-1.62,4.92,15.61,15.61,0,0,1-8.59,7.27c-6.6,2.51-13.69,2.57-19.26-.36a48.84,48.84,0,0,0,10.1-1.32c.59-.13,1.17-.29,1.74-.46l.14-.05.15,0,.2-.07.22-.07.89-.33.17-.07.22-.09.21-.08.19-.09.22-.09.21-.1.81-.39.19-.1.2-.1,1-.55.3-.18h0l.29-.18.29-.18h0l.27-.19c.22-.14.42-.29.63-.44l.45-.34.24-.19.12-.1.17-.14.12-.09.24-.21.2-.18c.36-.31.7-.63,1-1l.21-.21h0l.22-.23,0,0,.19-.21.2-.22.08-.09.16-.18,0,0,.42-.51,0,0,.2-.25a2.35,2.35,0,0,0,.19-.25l.24-.31.15-.2a.61.61,0,0,1,.07-.1l.15-.22,0,0,.18-.26.21-.31a2.39,2.39,0,0,1,.13-.21l0-.06c0-.08.1-.17.16-.25v0c.11-.17.21-.34.31-.51a1.09,1.09,0,0,0,.08-.15c.1-.17.2-.34.29-.52a1.09,1.09,0,0,0,.08-.15L106,37l.09-.17c.14-.29.28-.58.41-.87l.08-.17.1-.24.12-.29.15-.36a1.34,1.34,0,0,1,.07-.18l.12-.34.09-.23c0-.12.07-.23.11-.34a.88.88,0,0,0,0-.15l0,0,.11-.35c0-.12.07-.25.11-.37l.78-.57.16-.12,0,0,.17-.13.08-.06h0a1.56,1.56,0,0,0,.2-.16l.36-.29.19-.16Z"/><path class="cls-3" d="M78,30.84c4.84,8.57,13.46,12.27,24.27,5.54,1.84-1.15,3.71-2.27,5.38-3.46a22.74,22.74,0,0,1-16.9,15.92,48.15,48.15,0,0,1-10.1,1.31,17.31,17.31,0,0,1-7.12-7,19.37,19.37,0,0,1,1.19-20.92A26.47,26.47,0,0,0,78,30.84Z"/><path class="cls-4" d="M74.72,22.27a19.38,19.38,0,0,1,32.53,1.86,27.59,27.59,0,0,1,1.28,2.62,22.71,22.71,0,0,1-.88,6.17c-1.67,1.19-3.54,2.31-5.38,3.46C91.46,43.11,82.87,42.79,78,34.22,76.45,31.42,75.19,25.13,74.72,22.27Z"/><path class="cls-5" d="M95.94,5a20.94,20.94,0,0,1,11.36,6.34c.6.63,1.17,1.29,1.72,2a32.73,32.73,0,0,1,2.53,3.7,14,14,0,0,1,2.18,6.6c.07,3.1-1.5,5.47-3.83,7.53a24.07,24.07,0,0,0-1.37-4.4v-.07a2.44,2.44,0,0,0,0-.27v-.35c0-.08,0-.17,0-.26h0a.81.81,0,0,0,0-.16,1.21,1.21,0,0,0,0-.19c0-.09,0-.17,0-.26s0-.07,0-.1,0-.17,0-.26,0-.18,0-.28,0-.11,0-.17,0-.24,0-.37,0-.1,0-.15h0c0-.18,0-.36-.08-.53l0-.25v0a1.87,1.87,0,0,0,0-.25v0c0-.06,0-.12,0-.18l0-.18c0-.13-.05-.25-.08-.38l-.06-.31c0-.11,0-.21-.07-.32s0-.12,0-.18-.09-.39-.15-.58l-.06-.24c0-.09-.05-.18-.08-.28s0-.11,0-.16l-.06-.2c0-.08,0-.16-.08-.24a2.58,2.58,0,0,0-.08-.26,2,2,0,0,0-.07-.23c0-.08,0-.16-.08-.25s-.09-.26-.14-.39a1.59,1.59,0,0,0-.07-.2l-.06-.17c-.15-.4-.3-.79-.47-1.18-.06-.16-.13-.32-.2-.48s-.07-.14-.1-.22l-.12-.27-.12-.24a.61.61,0,0,0,0-.12l-.09-.18-.12-.24v0l-.12-.24-.09-.16-.16-.31q-.18-.33-.36-.63l-.19-.33-.18-.29-.05-.09a1.76,1.76,0,0,1-.14-.23l-.06-.08-.18-.28c-.06-.1-.13-.19-.19-.28l0-.08-.41-.58c-.06-.08-.12-.17-.19-.25s-.25-.34-.39-.51h0c-.13-.17-.26-.33-.4-.49s-.27-.33-.41-.48l-.15-.17-.28-.31-.21-.22-.18-.18-.06-.07L101,8.62h0l-.18-.18-.06-.06-.18-.17,0,0L100.29,8l0,0-.18-.17-.18-.15-.2-.17,0,0-.18-.15-.11-.08-.13-.11L99.1,7l0,0-.22-.18h0l-.22-.16-.07-.05-.16-.12-.11-.07-.19-.13h0l-.25-.17,0,0-.21-.13-.08,0-.21-.13L97,5.58C96.67,5.37,96.31,5.18,95.94,5Z"/><path class="cls-6" d="M95.94,5a18.44,18.44,0,0,0-11.2,1.58,25.05,25.05,0,0,0-5.37,3.34,16.5,16.5,0,0,0-1.88,1.85,12.36,12.36,0,0,0-2.77,10.51,16.07,16.07,0,0,0-.92,1.4,17.2,17.2,0,0,0-.94,1.74,21.8,21.8,0,0,0-1,2.54q-.16.54-.3,1.08h0a20,20,0,0,0-.51,3.28c0,.32,0,.63,0,.95a19.27,19.27,0,0,0,2.51,9.93,17.39,17.39,0,0,0,7.12,7c-8.87,0-16.53-3.83-17-18.55-.25-7.41,1.85-14.27,6.2-19.48a3.27,3.27,0,0,0,.54,0,3.15,3.15,0,0,0,3.11-3.58,26.6,26.6,0,0,1,7.38-4.1A18.49,18.49,0,0,1,95.94,5Z"/><path class="cls-7" d="M74.72,22.27c-1-5.88,1.25-11.56,10-15.7A18.44,18.44,0,0,1,95.94,5c6.11,3,10.43,9.52,12,16.73a23.41,23.41,0,0,1,.55,5,27.59,27.59,0,0,0-1.28-2.62,19.38,19.38,0,0,0-32.53-1.86Z"/><circle class="cls-5" cx="76.4" cy="54.24" r="2.18"/><circle class="cls-6" cx="113.75" cy="35.58" r="1.86"/><path class="cls-4" d="M73.48,8.59a3.15,3.15,0,0,1-3.11,3.58,3.27,3.27,0,0,1-.54,0A24,24,0,0,1,73.48,8.59Z"/><path class="cls-2" d="M70.37,5.89a3.15,3.15,0,0,1,3.11,2.7,24,24,0,0,0-3.65,3.54,3.14,3.14,0,0,1,.54-6.24Z"/><path class="cls-1" d="M38.5,59.45A23.93,23.93,0,0,1,37.13,55a27.41,27.41,0,0,1,2.25-1.76A22.66,22.66,0,0,0,38.5,59.45Z"/><path class="cls-2" d="M37.13,55c-.06-.29-.12-.59-.17-.88a19.83,19.83,0,0,1-.05-6.29,15.15,15.15,0,0,1,10.2-12.19c6.6-2.51,13.7-2.57,19.27.36a48.75,48.75,0,0,0-10.1,1.32c-.59.13-1.17.28-1.74.46l-.15,0-.15,0-.19.07-.22.07c-.3.1-.6.21-.89.33l-.18.06-.21.09-.21.09-.2.08-.21.1-.21.09-.81.39-.2.11-.2.1c-.33.17-.65.36-1,.55l-.29.18h0L49,40.4l-.28.19h0l-.28.18-.62.45-.46.34-.23.18-.13.11-.16.13-.12.1-.24.2-.21.18c-.35.31-.7.64-1,1l-.2.21h0l-.21.23,0,0-.19.21-.19.21-.09.09c-.05.06-.1.13-.16.19l0,0-.42.5,0,0-.2.25-.19.24L43,46l-.15.21-.07.09a1.77,1.77,0,0,1-.16.22v0l-.18.26-.21.31-.13.2,0,.06-.16.26,0,0-.31.52a.64.64,0,0,1-.08.14l-.29.53a1.09,1.09,0,0,1-.08.15s-.05.11-.08.17l-.09.17c-.15.28-.28.57-.41.86a1.42,1.42,0,0,0-.08.18l-.11.24-.12.29c-.05.12-.1.24-.14.36a1.34,1.34,0,0,0-.07.18,3.42,3.42,0,0,0-.13.34c0,.07,0,.15-.08.23l-.12.33a.75.75,0,0,1,0,.16.43.43,0,0,0,0,.05,3.58,3.58,0,0,0-.11.35c0,.12-.08.24-.11.37l-.79.57-.15.12a.1.1,0,0,0,0,0l-.17.13-.08.06h0l-.21.16-.35.3-.19.15Z"/><path class="cls-3" d="M69,55.35c-4.84-8.56-13.47-12.26-24.27-5.53-1.85,1.15-3.71,2.27-5.38,3.46a22.69,22.69,0,0,1,16.9-15.92A48.75,48.75,0,0,1,66.38,36a17.45,17.45,0,0,1,7.12,7,19.37,19.37,0,0,1-1.2,20.92A26.81,26.81,0,0,0,69,55.35Z"/><path class="cls-4" d="M72.3,63.93a19.37,19.37,0,0,1-32.52-1.87,23.34,23.34,0,0,1-1.28-2.61,22.66,22.66,0,0,1,.88-6.17c1.67-1.19,3.53-2.31,5.38-3.46C55.56,43.09,64.16,43.41,69,52,70.58,54.78,71.83,61.07,72.3,63.93Z"/><path class="cls-5" d="M51.08,81.21a20.87,20.87,0,0,1-11.35-6.35,25.43,25.43,0,0,1-1.72-2,33.4,33.4,0,0,1-2.54-3.7,14,14,0,0,1-2.17-6.61c-.07-3.09,1.5-5.46,3.83-7.53a23.93,23.93,0,0,0,1.37,4.41v.34c0,.11,0,.23,0,.34a2.44,2.44,0,0,0,0,.27h0v.15a1.41,1.41,0,0,1,0,.2c0,.09,0,.17,0,.25a.31.31,0,0,0,0,.1,2.11,2.11,0,0,0,0,.26,2.46,2.46,0,0,0,0,.28.88.88,0,0,0,0,.17c0,.13,0,.25,0,.37a.88.88,0,0,0,0,.16h0c0,.18,0,.35.07.53s0,.17,0,.25v0c0,.08,0,.17.05.25v0l0,.18a1.16,1.16,0,0,0,0,.18c0,.13.05.25.07.38s.05.2.07.31.05.21.07.31,0,.13.05.19.09.38.14.58l.06.23c0,.1.06.19.08.28s0,.12,0,.17l.06.19c0,.09,0,.17.07.25l.08.26.07.22.09.25c0,.13.09.26.13.4l.07.19.06.17c.15.4.31.8.47,1.19l.21.48.09.21.13.28.11.24.06.11.09.18a1.34,1.34,0,0,0,.12.24v0l.12.23.08.17.17.31.35.63.2.33.17.29.06.08a1.76,1.76,0,0,0,.14.23.56.56,0,0,0,0,.08l.19.29c.06.09.12.19.19.28l0,.08.4.57.19.26.39.5h0l.4.49.42.48.15.17.28.31.21.22.17.18.07.06c.06.07.13.13.19.19v0l.19.18.05,0,.19.17s0,0,0,0l.19.18,0,0,.19.16.18.16.2.17,0,0,.18.15.1.09.14.1.15.12,0,0,.23.17,0,0,.21.15.08.06.16.11.11.08L49,80h0l.26.16,0,0,.22.14.07,0,.21.13.27.16C50.35,80.82,50.71,81,51.08,81.21Z"/><path class="cls-6" d="M51.08,81.21a18.5,18.5,0,0,0,11.2-1.58,24.76,24.76,0,0,0,5.38-3.35,15.6,15.6,0,0,0,1.87-1.85,12.31,12.31,0,0,0,2.77-10.5c.33-.46.64-.92.93-1.4a19.53,19.53,0,0,0,.93-1.75,17.76,17.76,0,0,0,1-2.54c.11-.35.21-.71.3-1.07h0A19.3,19.3,0,0,0,76,53.89c0-.32,0-.64,0-1A19.32,19.32,0,0,0,73.5,43a17.45,17.45,0,0,0-7.12-7c8.86,0,16.53,3.82,17,18.55.25,7.4-1.85,14.27-6.21,19.48a3.07,3.07,0,0,0-.53,0,3.14,3.14,0,0,0-3.14,3.14,3.29,3.29,0,0,0,0,.45,26.74,26.74,0,0,1-7.38,4.1A18.51,18.51,0,0,1,51.08,81.21Z"/><path class="cls-7" d="M72.3,63.93c1,5.88-1.24,11.56-10,15.7a18.5,18.5,0,0,1-11.2,1.58c-6.1-3.06-10.42-9.52-12-16.73a22.27,22.27,0,0,1-.55-5,23.34,23.34,0,0,0,1.28,2.61A19.37,19.37,0,0,0,72.3,63.93Z"/><circle class="cls-5" cx="70.63" cy="31.95" r="2.18"/><circle class="cls-6" cx="33.27" cy="50.62" r="1.86"/><path class="cls-4" d="M73.55,77.61a3.29,3.29,0,0,1,0-.45A3.14,3.14,0,0,1,76.66,74a3.07,3.07,0,0,1,.53,0A24.41,24.41,0,0,1,73.55,77.61Z"/><path class="cls-2" d="M76.66,80.3a3.14,3.14,0,0,1-3.11-2.69,24.41,24.41,0,0,0,3.64-3.54,3.14,3.14,0,0,1-.53,6.23Z"/><path class="cls-1" d="M137.9,43.61a24.07,24.07,0,0,1,4.4-1.37,25.47,25.47,0,0,1,1.77,2.25A22.71,22.71,0,0,0,137.9,43.61Z"/><path class="cls-2" d="M142.3,42.24l.89-.16a19.83,19.83,0,0,1,6.29-.06,15.82,15.82,0,0,1,4.92,1.62,15.61,15.61,0,0,1,7.27,8.59c2.51,6.6,2.57,13.69-.36,19.27A48.84,48.84,0,0,0,160,61.39c-.13-.59-.29-1.17-.46-1.74l-.05-.14s0-.1,0-.15a1.59,1.59,0,0,1-.07-.2l-.07-.22c-.11-.3-.21-.59-.33-.89a1.22,1.22,0,0,0-.07-.17c0-.08-.06-.15-.08-.22l-.09-.21-.09-.19-.09-.22-.09-.21c-.13-.27-.26-.54-.4-.8l-.1-.2-.1-.2c-.18-.33-.36-.65-.55-1l-.18-.3h0c-.05-.1-.12-.19-.18-.29l-.18-.29h0a2.75,2.75,0,0,0-.19-.28c-.14-.22-.29-.42-.44-.63l-.34-.45-.19-.24-.1-.12a2.09,2.09,0,0,0-.14-.17l-.09-.11-.2-.24-.18-.21c-.32-.36-.64-.7-1-1l-.21-.21h0l-.23-.22s0,0,0,0l-.21-.19-.22-.2-.09-.08-.18-.16,0,0-.51-.42,0,0-.25-.2-.25-.19-.31-.24-.2-.15-.1-.07-.21-.15,0,0-.26-.18-.31-.2-.21-.14-.06,0-.25-.16,0,0-.51-.31-.15-.08c-.17-.1-.34-.2-.52-.29l-.15-.08-.17-.09L148,46l-.87-.41-.17-.08-.24-.1-.29-.12-.36-.15-.18-.07-.34-.12-.23-.09-.34-.11-.15-.05-.05,0-.35-.11-.37-.11q-.28-.41-.57-.78l-.12-.16,0,0-.13-.17-.06-.08h0a1.56,1.56,0,0,0-.16-.2l-.29-.36-.16-.18Z"/><path class="cls-3" d="M142,74.14c8.57-4.84,12.27-13.46,5.54-24.27-1.15-1.84-2.27-3.7-3.46-5.38A22.75,22.75,0,0,1,160,61.39a48.84,48.84,0,0,1,1.32,10.11,17.43,17.43,0,0,1-7,7.11,19.37,19.37,0,0,1-20.92-1.19A26.47,26.47,0,0,0,142,74.14Z"/><path class="cls-4" d="M133.42,77.42a19.38,19.38,0,0,1,1.86-32.53,27.59,27.59,0,0,1,2.62-1.28,22.71,22.71,0,0,1,6.17.88c1.19,1.68,2.31,3.54,3.46,5.38,6.73,10.81,6.41,19.4-2.16,24.24C142.57,75.69,136.28,77,133.42,77.42Z"/><path class="cls-5" d="M116.14,56.2a20.94,20.94,0,0,1,6.34-11.36,25.2,25.2,0,0,1,2-1.71,32.49,32.49,0,0,1,3.7-2.54,14,14,0,0,1,6.6-2.18c3.1-.07,5.47,1.51,7.53,3.83a24.07,24.07,0,0,0-4.4,1.37h-1.66l-.26,0-.28,0-.17,0-.37,0-.15,0h0l-.53.08-.25,0h0L134,44h0l-.18,0-.18,0-.38.08-.31.06-.32.08-.18,0c-.2,0-.39.09-.58.15l-.23.06-.29.08-.16,0-.2.05-.24.08-.26.08-.22.07-.26.08-.39.14-.2.07-.17.06c-.4.15-.79.3-1.18.47l-.48.2-.22.1-.27.12-.24.12-.12.05-.18.09-.24.12h0l-.24.12-.16.09-.31.16-.63.36-.33.19-.29.18-.09,0-.23.14-.08.06-.28.18-.28.19-.08,0-.58.41-.25.19-.51.39h0l-.49.4c-.17.13-.33.27-.48.41l-.17.15-.31.28-.22.21-.18.18L120,51c-.06.07-.13.13-.19.19v0l-.18.18-.06.06-.17.18,0,0-.17.19,0,0-.17.18-.15.18-.17.2,0,0-.15.18a.76.76,0,0,1-.08.11l-.11.13-.11.15,0,0-.17.22,0,0c0,.08-.11.15-.16.22l-.05.07-.12.16-.07.11c0,.06-.09.12-.13.19h0l-.17.25v0l-.14.21a.35.35,0,0,0,0,.08,2.39,2.39,0,0,0-.13.21l-.16.26C116.52,55.47,116.33,55.83,116.14,56.2Z"/><path class="cls-6" d="M116.14,56.2a18.44,18.44,0,0,0,1.58,11.2,25.05,25.05,0,0,0,3.34,5.37,15.77,15.77,0,0,0,1.86,1.88,12.34,12.34,0,0,0,10.5,2.77,16.07,16.07,0,0,0,1.4.92,16.34,16.34,0,0,0,1.75.94,21,21,0,0,0,2.53,1q.54.17,1.08.3h0a20.16,20.16,0,0,0,3.28.51c.32,0,.63,0,.95.05a19.27,19.27,0,0,0,9.93-2.51,17.43,17.43,0,0,0,7-7.11c0,8.86-3.83,16.52-18.55,17-7.41.25-14.27-1.85-19.48-6.2a3.27,3.27,0,0,0,0-.54,3.15,3.15,0,0,0-3.58-3.11,26.6,26.6,0,0,1-4.1-7.38A18.49,18.49,0,0,1,116.14,56.2Z"/><path class="cls-7" d="M133.42,77.42c-5.88,1-11.56-1.24-15.7-10a18.44,18.44,0,0,1-1.58-11.2c3-6.11,9.52-10.43,16.73-12a23.41,23.41,0,0,1,5-.55,27.59,27.59,0,0,0-2.62,1.28,19.38,19.38,0,0,0-1.86,32.53Z"/><circle class="cls-5" cx="165.39" cy="75.74" r="2.18"/><circle class="cls-6" cx="146.73" cy="38.39" r="1.86"/><path class="cls-4" d="M119.74,78.66a3.15,3.15,0,0,1,3.58,3.11,3.27,3.27,0,0,1,0,.54A24,24,0,0,1,119.74,78.66Z"/><path class="cls-2" d="M117,81.77a3.15,3.15,0,0,1,2.7-3.11,24,24,0,0,0,3.54,3.65,3.14,3.14,0,0,1-6.24-.54Z"/><path class="cls-1" d="M23.61,43.61A24.42,24.42,0,0,1,28,42.24a27.48,27.48,0,0,1,1.77,2.25A22.73,22.73,0,0,0,23.61,43.61Z"/><path class="cls-2" d="M28,42.24l.89-.16A19.83,19.83,0,0,1,35.2,42a15.82,15.82,0,0,1,4.92,1.62,15.61,15.61,0,0,1,7.27,8.59C49.9,58.83,50,65.92,47,71.5a48.15,48.15,0,0,0-1.31-10.11c-.14-.59-.29-1.17-.46-1.74l0-.14s0-.1-.05-.15l-.06-.2c0-.07-.05-.15-.08-.22-.1-.3-.21-.59-.32-.89,0-.06,0-.11-.07-.17l-.09-.22a1.8,1.8,0,0,1-.08-.21l-.09-.19L44.27,57a2,2,0,0,1-.1-.21c-.12-.27-.25-.54-.39-.8l-.1-.2c0-.07-.07-.14-.11-.2-.17-.33-.35-.65-.54-1l-.18-.3h0l-.18-.29-.19-.29h0c-.06-.1-.13-.19-.19-.28s-.29-.42-.44-.63l-.35-.45-.18-.24-.1-.12-.14-.17L41,51.78a2.57,2.57,0,0,0-.21-.24l-.18-.21c-.31-.36-.63-.7-1-1l-.2-.21h0l-.22-.22,0,0-.2-.19-.22-.2-.09-.08-.18-.16,0,0-.5-.42,0,0-.24-.2-.25-.19-.31-.24-.2-.15-.1-.07-.22-.15,0,0-.26-.18-.32-.2-.2-.14-.06,0L35.43,47l0,0-.52-.31-.14-.08-.52-.29-.15-.08-.17-.09L33.73,46l-.87-.41-.18-.08-.24-.1-.29-.12-.35-.15-.18-.07L31.28,45,31,44.89l-.33-.11-.15-.05,0,0-.35-.11-.37-.11c-.19-.27-.38-.53-.58-.78l-.11-.16a.1.1,0,0,1,0,0l-.14-.17-.06-.08h0l-.16-.2-.29-.36-.16-.18Z"/><path class="cls-3" d="M27.71,74.14C36.28,69.3,40,60.68,33.24,49.87,32.09,48,31,46.17,29.79,44.49a22.75,22.75,0,0,1,15.92,16.9A48.15,48.15,0,0,1,47,71.5a17.31,17.31,0,0,1-7,7.11,19.35,19.35,0,0,1-20.91-1.19A26.47,26.47,0,0,0,27.71,74.14Z"/><path class="cls-4" d="M19.14,77.42A19.38,19.38,0,0,1,21,44.89a28.64,28.64,0,0,1,2.61-1.28,22.73,22.73,0,0,1,6.18.88c1.19,1.68,2.3,3.54,3.45,5.38,6.73,10.81,6.42,19.4-2.15,24.24C28.29,75.69,22,77,19.14,77.42Z"/><path class="cls-5" d="M1.86,56.2A20.94,20.94,0,0,1,8.2,44.84a23.52,23.52,0,0,1,2-1.71,31.63,31.63,0,0,1,3.7-2.54,13.93,13.93,0,0,1,6.6-2.18c3.1-.07,5.47,1.51,7.53,3.83a24.42,24.42,0,0,0-4.41,1.37H22l-.26,0-.28,0-.17,0-.37,0-.15,0h0l-.54.08-.25,0h0l-.24,0h0l-.18,0-.19,0-.37.08-.31.06-.32.08-.19,0c-.19,0-.38.09-.57.15l-.24.06-.28.08-.17,0-.19.05-.25.08-.25.08-.23.07-.25.08-.39.14-.2.07-.17.06c-.4.15-.8.3-1.19.47l-.47.2L13,46l-.27.12-.24.12-.12.05-.18.09-.24.12h0l-.24.12-.16.09-.32.16-.63.36-.33.19-.29.18-.08,0-.23.14-.08.06-.28.18L9,48.25l-.07,0-.58.41-.26.19-.5.39h0l-.5.4-.48.41-.16.15-.31.28-.22.21-.19.18L5.68,51l-.19.19v0l-.18.18-.06.06-.17.18,0,0-.18.19s0,0,0,0l-.17.18-.15.18-.17.2,0,0-.15.18a.76.76,0,0,0-.08.11L4,52.89,3.85,53l0,0-.17.22v0l-.16.22,0,.07-.12.16-.07.11a1.27,1.27,0,0,0-.13.19h0l-.17.25,0,0-.14.21a.35.35,0,0,1,0,.08l-.12.21a2.26,2.26,0,0,0-.16.26C2.24,55.47,2,55.83,1.86,56.2Z"/><path class="cls-6" d="M1.86,56.2A18.36,18.36,0,0,0,3.44,67.4a24.66,24.66,0,0,0,3.34,5.37,16.5,16.5,0,0,0,1.85,1.88,12.34,12.34,0,0,0,10.5,2.77c.46.33.93.64,1.4.92a18.5,18.5,0,0,0,1.75.94,21.13,21.13,0,0,0,2.54,1q.54.17,1.08.3h0a20,20,0,0,0,3.28.51c.31,0,.63,0,.95.05a19.23,19.23,0,0,0,9.92-2.51,17.31,17.31,0,0,0,7-7.11c0,8.86-3.82,16.52-18.54,17-7.41.25-14.27-1.85-19.49-6.2a3.29,3.29,0,0,0,0-.54A3.15,3.15,0,0,0,5.9,78.63a3.4,3.4,0,0,0-.45,0,26.57,26.57,0,0,1-4.09-7.38A18.49,18.49,0,0,1,1.86,56.2Z"/><path class="cls-7" d="M19.14,77.42c-5.89,1-11.57-1.24-15.7-10A18.36,18.36,0,0,1,1.86,56.2c3.05-6.11,9.51-10.43,16.73-12a23.39,23.39,0,0,1,5-.55A28.64,28.64,0,0,0,21,44.89a19.38,19.38,0,0,0-1.86,32.53Z"/><circle class="cls-5" cx="51.11" cy="75.74" r="2.18"/><circle class="cls-6" cx="32.44" cy="38.39" r="1.86"/><path class="cls-4" d="M5.45,78.66a3.4,3.4,0,0,1,.45,0A3.15,3.15,0,0,1,9,81.77a3.29,3.29,0,0,1,0,.54A25,25,0,0,1,5.45,78.66Z"/><path class="cls-2" d="M2.76,81.77a3.15,3.15,0,0,1,2.69-3.11A25,25,0,0,0,9,82.31a3.14,3.14,0,0,1-6.23-.54Z"/><path class="cls-1" d="M49.6,28.42A23.19,23.19,0,0,1,51,32.83a27.22,27.22,0,0,1-2.24,1.76A22.65,22.65,0,0,0,49.6,28.42Z"/><path class="cls-2" d="M51,32.83c.07.29.12.59.17.88A19.83,19.83,0,0,1,51.2,40a15.91,15.91,0,0,1-1.62,4.92A15.61,15.61,0,0,1,41,52.19c-6.6,2.51-13.7,2.57-19.27-.36a48.66,48.66,0,0,0,10.1-1.32c.6-.13,1.18-.28,1.75-.46l.14,0,.15,0,.2-.07.22-.07c.3-.1.59-.21.88-.33l.18-.07.21-.08.21-.09.2-.08.22-.1.2-.09.81-.39.2-.11.2-.1,1-.55.3-.18h0l.29-.18.28-.19h0l.28-.18.63-.45.45-.34a2.11,2.11,0,0,0,.23-.19l.13-.1.17-.13.11-.1.24-.2.21-.18c.35-.31.7-.64,1-1l.21-.21h0l.22-.23,0,0,.19-.21.2-.21.08-.09c0-.07.11-.13.16-.19l0,0,.42-.5,0,0,.2-.25.19-.24.24-.32a1.43,1.43,0,0,0,.14-.2l.07-.09.16-.22v0a1.51,1.51,0,0,0,.18-.26l.21-.31.13-.2a.16.16,0,0,0,0-.07c.06-.08.11-.17.16-.25l0,0c.11-.17.21-.35.31-.52s0-.1.08-.14.2-.35.29-.53l.08-.15.09-.17a.89.89,0,0,0,.08-.17q.23-.42.42-.87l.08-.17.1-.24L47.9,37l.15-.36.06-.18a3.42,3.42,0,0,0,.13-.34l.09-.23c0-.11.07-.22.11-.33s0-.11.05-.16,0,0,0,0,.07-.23.11-.35.07-.24.11-.37l.78-.57.15-.12.06,0,.17-.13.07-.06h0l.2-.17.35-.29.19-.16Z"/><path class="cls-3" d="M19.08,32.51c4.83,8.57,13.46,12.27,24.27,5.54,1.84-1.15,3.7-2.27,5.38-3.46A22.72,22.72,0,0,1,31.82,50.51a48.66,48.66,0,0,1-10.1,1.32,17.51,17.51,0,0,1-7.12-7,19.37,19.37,0,0,1,1.2-20.92A26.47,26.47,0,0,0,19.08,32.51Z"/><path class="cls-4" d="M15.8,23.94a19.37,19.37,0,0,1,32.52,1.87,23.34,23.34,0,0,1,1.28,2.61,22.65,22.65,0,0,1-.87,6.17c-1.68,1.19-3.54,2.31-5.38,3.46C32.54,44.78,24,44.46,19.11,35.9,17.53,33.09,16.27,26.8,15.8,23.94Z"/><path class="cls-5" d="M37,6.66A20.9,20.9,0,0,1,48.38,13a25.33,25.33,0,0,1,1.71,2,33.4,33.4,0,0,1,2.54,3.7A14,14,0,0,1,54.8,25.3c.07,3.09-1.5,5.46-3.83,7.53a23.19,23.19,0,0,0-1.37-4.41v-.68a2.44,2.44,0,0,1,0-.27h0a.76.76,0,0,1,0-.15c0-.07,0-.14,0-.2a2,2,0,0,0,0-.25v-.11c0-.08,0-.17,0-.26l0-.27c0-.06,0-.12,0-.18s0-.24,0-.36a1,1,0,0,1,0-.16h0c0-.18,0-.35-.08-.53a2.17,2.17,0,0,0,0-.25v0c0-.08,0-.17,0-.25v0l0-.18,0-.18c0-.13-.05-.25-.08-.38s0-.21-.07-.31,0-.21-.07-.31,0-.13,0-.19l-.15-.58-.06-.23-.08-.29c0-.05,0-.11,0-.16s0-.13-.05-.19,0-.17-.08-.25a2.58,2.58,0,0,0-.08-.26l-.07-.22c0-.09-.06-.17-.08-.25s-.09-.27-.14-.4L48,19.87,48,19.7c-.15-.4-.3-.8-.47-1.19L47.3,18a2,2,0,0,1-.1-.21,2.39,2.39,0,0,0-.13-.28A2.56,2.56,0,0,0,47,17.3l-.05-.11L46.82,17l-.12-.24v0l-.12-.23-.09-.17L46.31,16c-.11-.21-.23-.42-.35-.63s-.13-.22-.2-.33-.11-.19-.17-.29a.41.41,0,0,1-.05-.09l-.15-.22a.22.22,0,0,0,0-.08l-.18-.29c-.07-.09-.13-.19-.19-.28l-.06-.08-.4-.57-.19-.26-.39-.5h0l-.4-.49-.41-.48L43,11.26,42.68,11l-.21-.22-.17-.18-.06-.06-.2-.2h0l-.19-.18a.12.12,0,0,0-.05,0l-.18-.17,0-.05-.19-.17,0,0-.19-.16L41,9.31l-.2-.17,0,0L40.57,9l-.11-.09-.13-.11-.15-.11,0,0-.23-.17,0,0-.21-.16-.07,0-.17-.11L39.34,8l-.19-.13h0l-.25-.17h0l-.21-.14-.08,0-.21-.13-.26-.16C37.75,7,37.39,6.85,37,6.66Z"/><path class="cls-6" d="M37,6.66a18.51,18.51,0,0,0-11.2,1.58,24.43,24.43,0,0,0-5.37,3.35,15.71,15.71,0,0,0-1.88,1.85,12.34,12.34,0,0,0-2.77,10.5c-.33.45-.64.92-.93,1.4a19.53,19.53,0,0,0-.93,1.75,19,19,0,0,0-1,2.54c-.11.35-.21.71-.3,1.07h0A20.18,20.18,0,0,0,12.14,34c0,.32,0,.64,0,1a19.33,19.33,0,0,0,2.5,9.93,17.51,17.51,0,0,0,7.12,7c-8.86,0-16.52-3.82-17-18.55C4.46,25.88,6.55,19,10.91,13.8a3.19,3.19,0,0,0,.54,0,3.15,3.15,0,0,0,3.14-3.14,2.15,2.15,0,0,0,0-.45,26.89,26.89,0,0,1,7.38-4.1A18.51,18.51,0,0,1,37,6.66Z"/><path class="cls-7" d="M15.8,23.94c-1-5.88,1.24-11.56,10-15.7A18.51,18.51,0,0,1,37,6.66c6.11,3.06,10.43,9.52,12,16.73a22.27,22.27,0,0,1,.55,5,23.34,23.34,0,0,0-1.28-2.61A19.37,19.37,0,0,0,15.8,23.94Z"/><circle class="cls-5" cx="17.48" cy="55.92" r="2.18"/><circle class="cls-6" cx="54.83" cy="37.25" r="1.86"/><path class="cls-4" d="M14.55,10.26a2.15,2.15,0,0,1,0,.45,3.15,3.15,0,0,1-3.14,3.14,3.19,3.19,0,0,1-.54,0A24.9,24.9,0,0,1,14.55,10.26Z"/><path class="cls-2" d="M11.45,7.57a3.13,3.13,0,0,1,3.1,2.69,24.9,24.9,0,0,0-3.64,3.54,3.14,3.14,0,0,1,.54-6.23Z"/><path class="cls-1" d="M177,13.22a23.65,23.65,0,0,1,4.08,2.15,24.1,24.1,0,0,1-.34,2.84A22.53,22.53,0,0,0,177,13.22Z"/><path class="cls-2" d="M181.1,15.37c.25.16.5.33.74.51a19.56,19.56,0,0,1,4.49,4.4,15.78,15.78,0,0,1,2.34,4.63,15.63,15.63,0,0,1-.93,11.21c-2.9,6.44-7.87,11.5-13.89,13.37a48.3,48.3,0,0,0,6.22-8.08c.32-.51.62-1,.9-1.55a.91.91,0,0,0,.07-.14.61.61,0,0,0,.07-.14,1.62,1.62,0,0,0,.1-.18l.1-.21c.14-.28.27-.57.4-.86,0,0,0-.11.07-.17a1,1,0,0,0,.09-.21l.09-.21.08-.2.09-.22a1.8,1.8,0,0,1,.08-.21c.1-.29.2-.57.29-.85l.07-.22a1.72,1.72,0,0,1,.07-.21c.1-.36.2-.71.29-1.07,0-.11.06-.23.08-.34h0c0-.11,0-.22.07-.33s0-.22.07-.33h0c0-.11.05-.22.07-.33s.09-.51.13-.76,0-.37.07-.56,0-.2,0-.3,0-.1,0-.16a1.49,1.49,0,0,1,0-.21c0-.05,0-.1,0-.15l0-.31c0-.1,0-.19,0-.28,0-.47,0-.94,0-1.41V29h0c0-.1,0-.21,0-.31V28.6a2.81,2.81,0,0,0,0-.29c0-.09,0-.19,0-.29s0-.08,0-.12,0-.16,0-.24v-.05c0-.21,0-.43-.05-.65v-.05l0-.31c0-.1,0-.21,0-.31s0-.26,0-.39a1.87,1.87,0,0,1,0-.25.43.43,0,0,1,0-.11c0-.09,0-.18-.05-.27v0l-.06-.32c0-.12,0-.24-.07-.37l-.06-.23s0,0,0-.07-.05-.2-.07-.3v0c0-.2-.09-.39-.15-.59s0-.1,0-.16-.11-.38-.17-.57a1,1,0,0,0-.05-.16,1.21,1.21,0,0,0,0-.18l-.06-.19c-.1-.3-.21-.6-.32-.9a1.34,1.34,0,0,1-.07-.18l-.1-.25-.12-.29-.15-.35a1.42,1.42,0,0,0-.08-.18l-.15-.33-.1-.22c-.05-.11-.11-.21-.16-.32l-.07-.14s0,0,0-.05-.12-.21-.17-.32-.13-.23-.19-.34c.06-.33.11-.64.15-1l0-.19V17l0-.21a.38.38,0,0,0,0-.1h0l0-.26c0-.16,0-.31.05-.46s0-.16,0-.24S181.1,15.48,181.1,15.37Z"/><path class="cls-3" d="M158.33,37.7c9.47,2.64,18.19-.84,21.07-13.24.49-2.12,1-4.23,1.36-6.25a22.69,22.69,0,0,1-.69,23.2,48.3,48.3,0,0,1-6.22,8.08,17.36,17.36,0,0,1-10,.1A19.34,19.34,0,0,1,150,34,26.47,26.47,0,0,0,158.33,37.7Z"/><path class="cls-4" d="M150,34a19.36,19.36,0,0,1,24.31-21.68,26.37,26.37,0,0,1,2.76.94,22.53,22.53,0,0,1,3.74,5c-.34,2-.87,4.13-1.36,6.25-2.88,12.4-9.18,18.25-18.66,15.61C157.64,39.21,152.3,35.65,150,34Z"/><path class="cls-5" d="M152.74,6.74a20.82,20.82,0,0,1,12.51-3.55,26.06,26.06,0,0,1,2.62.19,32.9,32.9,0,0,1,4.41.82,14,14,0,0,1,6.21,3.14c2.23,2.14,2.8,4.92,2.61,8A23.65,23.65,0,0,0,177,13.22l-.05-.05-.19-.19-.25-.23-.19-.19h0l-.11-.1-.15-.13a1.54,1.54,0,0,0-.19-.17l-.07-.07-.2-.17-.21-.18-.14-.11L175,11.4l-.12-.09h0l-.43-.33-.2-.15h0l-.2-.14,0,0-.15-.11-.15-.1-.32-.21-.27-.18-.27-.17-.16-.1-.51-.3-.22-.12-.25-.15-.15-.08-.18-.1-.23-.12-.23-.13-.21-.1-.24-.12-.37-.18-.19-.09-.17-.08q-.57-.27-1.17-.51L168,7.51l-.22-.09-.28-.1-.25-.09-.12,0L167,7.12,166.72,7h0L166.45,7l-.18-.06-.34-.1-.7-.2-.37-.09-.33-.08-.09,0-.27-.06-.09,0-.33-.07-.33-.06-.1,0L162.63,6l-.32,0-.63-.08h0l-.63-.07-.63,0h-.23l-.42,0h-2.13l-.24,0-.26,0h0l-.23,0h-.13l-.17,0-.19,0h0l-.28,0h0l-.26,0-.09,0-.19,0-.13,0-.22,0h0l-.29.06h0l-.25.05-.09,0-.24.06-.3.07C153.52,6.49,153.13,6.61,152.74,6.74Z"/><path class="cls-6" d="M152.74,6.74a18.42,18.42,0,0,0-6.81,9,24.83,24.83,0,0,0-1.43,6.17,15.46,15.46,0,0,0,0,2.63A12.34,12.34,0,0,0,150,34c.08.55.2,1.1.33,1.64a18.09,18.09,0,0,0,.58,1.9A19.64,19.64,0,0,0,152,40c.17.33.36.65.55,1h0a19.72,19.72,0,0,0,2,2.68c.21.24.43.48.65.71a19.16,19.16,0,0,0,8.78,5.24,17.36,17.36,0,0,0,10-.1c-6.23,6.29-14.38,9-25.14-1.08-5.41-5.06-8.79-11.4-9.39-18.17a3.21,3.21,0,0,0,.41-.34,3.13,3.13,0,0,0,0-4.44,3.17,3.17,0,0,0-.34-.3,27.13,27.13,0,0,1,2.32-8.11A18.46,18.46,0,0,1,152.74,6.74Z"/><path class="cls-7" d="M150,34c-4.85-3.48-7.3-9.06-4-18.19a18.42,18.42,0,0,1,6.81-9c6.47-2.16,14.1-.65,20.33,3.31a23.26,23.26,0,0,1,4,3.17,26.37,26.37,0,0,0-2.76-.94A19.36,19.36,0,0,0,150,34Z"/><circle class="cls-5" cx="173.74" cy="55.38" r="2.18"/><circle class="cls-6" cx="186.96" cy="15.77" r="1.86"/><path class="cls-4" d="M139.39,25.16a3.17,3.17,0,0,1,.34.3,3.13,3.13,0,0,1,0,4.44,3.21,3.21,0,0,1-.41.34A24.69,24.69,0,0,1,139.39,25.16Z"/><path class="cls-2" d="M135.29,25.46a3.14,3.14,0,0,1,4.1-.3,24.69,24.69,0,0,0-.07,5.08,3.14,3.14,0,0,1-4-4.78Z"/><path class="cls-1" d="M174.3,38.89a24.07,24.07,0,0,1,4.4-1.37,27.48,27.48,0,0,1,1.77,2.25A22.33,22.33,0,0,0,174.3,38.89Z"/><path class="cls-2" d="M178.7,37.52l.89-.17a19.83,19.83,0,0,1,6.29-.05,15.15,15.15,0,0,1,12.19,10.2c2.51,6.6,2.57,13.7-.37,19.27a48.06,48.06,0,0,0-1.31-10.1c-.13-.59-.29-1.17-.46-1.74,0,0,0-.1-.05-.15a.88.88,0,0,0,0-.15l-.06-.2-.07-.21c-.11-.3-.21-.6-.33-.89l-.07-.18-.09-.21a1.8,1.8,0,0,0-.08-.21l-.09-.2-.09-.22-.1-.2q-.18-.4-.39-.81l-.1-.2c0-.07-.07-.13-.1-.2-.18-.33-.36-.65-.55-1l-.18-.29h0l-.18-.29-.18-.28h0l-.19-.28c-.14-.21-.29-.42-.44-.62s-.23-.31-.34-.46l-.19-.23-.1-.13-.14-.16-.09-.12-.21-.24-.18-.21c-.31-.35-.63-.7-1-1l-.21-.2h0l-.23-.21-.05,0-.2-.19-.22-.19-.09-.09-.18-.16,0,0-.5-.42,0,0a2.43,2.43,0,0,1-.25-.2l-.25-.19a3.55,3.55,0,0,0-.31-.23l-.2-.15-.1-.07-.22-.16h0L187,42.8l-.31-.21-.21-.13-.06,0-.26-.16,0,0-.52-.31-.14-.08-.52-.29-.15-.08-.17-.08-.17-.09c-.29-.15-.58-.28-.87-.41l-.17-.08-.25-.11-.28-.12-.36-.14-.18-.07-.34-.13-.23-.08-.34-.12-.15,0h-.05l-.35-.11-.37-.11L179.9,39l-.12-.15,0,0-.13-.17a.27.27,0,0,0-.07-.08h0l-.16-.21c-.1-.12-.19-.24-.29-.35s-.11-.13-.16-.19A2.85,2.85,0,0,0,178.7,37.52Z"/><path class="cls-3" d="M178.39,69.42C187,64.58,190.66,56,183.92,45.15c-1.14-1.85-2.26-3.71-3.45-5.38a22.72,22.72,0,0,1,15.92,16.9,48.06,48.06,0,0,1,1.31,10.1,17.33,17.33,0,0,1-7,7.12,19.35,19.35,0,0,1-20.91-1.2A26.68,26.68,0,0,0,178.39,69.42Z"/><path class="cls-4" d="M169.82,72.69a19.37,19.37,0,0,1,1.86-32.52,23.49,23.49,0,0,1,2.62-1.28,22.33,22.33,0,0,1,6.17.88c1.19,1.67,2.31,3.53,3.45,5.38,6.74,10.8,6.42,19.39-2.15,24.23C179,71,172.68,72.22,169.82,72.69Z"/><path class="cls-5" d="M152.54,51.47a20.88,20.88,0,0,1,6.34-11.35,25.6,25.6,0,0,1,2-1.72,31.63,31.63,0,0,1,3.7-2.54,14,14,0,0,1,6.6-2.17c3.1-.07,5.47,1.5,7.53,3.83a24.07,24.07,0,0,0-4.4,1.37H173l-.25,0h-.1l-.26,0-.28,0-.17,0-.37,0-.15,0h0l-.53.07-.26,0h0l-.25,0h0l-.18,0-.19,0-.37.07-.31.07-.32.07-.18,0-.58.15-.24.06-.28.08-.17,0-.19.06-.25.07-.25.08-.23.07-.25.09-.39.13-.2.07-.17.06-1.19.47-.47.21-.22.09-.27.13-.24.11-.12.06-.18.09-.24.12h0l-.24.12-.16.08-.31.17-.63.35-.33.2-.29.17-.09.06-.23.14-.08,0-.28.19-.28.18-.08.06L159,44l-.25.19-.51.39h0l-.49.4-.48.42-.17.15-.31.28-.22.21-.18.17-.07.07-.19.19h0l-.18.19-.06.05-.17.19,0,0-.17.19,0,0-.17.19-.15.18a1.63,1.63,0,0,0-.17.2l0,0-.15.18-.08.1-.11.14-.12.15,0,0-.18.23v0l-.16.21a.35.35,0,0,0,0,.08l-.12.16-.07.11-.13.18h0l-.17.25,0,0-.14.22,0,.07a2.39,2.39,0,0,0-.13.21c-.06.09-.11.18-.16.27C152.92,50.74,152.72,51.1,152.54,51.47Z"/><path class="cls-6" d="M152.54,51.47a18.43,18.43,0,0,0,1.58,11.2A24.8,24.8,0,0,0,157.46,68a15.72,15.72,0,0,0,1.85,1.88,12.33,12.33,0,0,0,10.51,2.77c.45.33.92.64,1.4.93a19.36,19.36,0,0,0,1.74.93,18.73,18.73,0,0,0,2.54,1q.54.16,1.08.3h0a19,19,0,0,0,3.28.52c.32,0,.63,0,.95,0a19.3,19.3,0,0,0,9.92-2.5,17.33,17.33,0,0,0,7-7.12c.05,8.86-3.82,16.53-18.54,17-7.41.25-14.27-1.85-19.48-6.21a3.08,3.08,0,0,0,0-.53,3.13,3.13,0,0,0-3.14-3.14,3.4,3.4,0,0,0-.45,0A27,27,0,0,1,152,66.56,18.51,18.51,0,0,1,152.54,51.47Z"/><path class="cls-7" d="M169.82,72.69c-5.88,1-11.56-1.24-15.7-10a18.43,18.43,0,0,1-1.58-11.2c3.05-6.1,9.52-10.42,16.73-12a22.21,22.21,0,0,1,5-.55,23.49,23.49,0,0,0-2.62,1.28,19.37,19.37,0,0,0-1.86,32.52Z"/><circle class="cls-5" cx="201.79" cy="71.02" r="2.18"/><circle class="cls-6" cx="183.13" cy="33.66" r="1.86"/><path class="cls-4" d="M156.13,73.94a3.4,3.4,0,0,1,.45,0,3.13,3.13,0,0,1,3.14,3.14,3.08,3.08,0,0,1,0,.53A24.48,24.48,0,0,1,156.13,73.94Z"/><path class="cls-2" d="M153.44,77.05a3.14,3.14,0,0,1,2.69-3.11,24.48,24.48,0,0,0,3.55,3.64,3.14,3.14,0,0,1-6.24-.53Z"/><path class="cls-1" d="M56.32,54.79a24.42,24.42,0,0,1-4.41,1.37,27.48,27.48,0,0,1-1.77-2.25A22.73,22.73,0,0,0,56.32,54.79Z"/><path class="cls-2" d="M51.91,56.16c-.29.06-.59.12-.88.16a19.54,19.54,0,0,1-6.29.06,15.19,15.19,0,0,1-12.2-10.21c-2.5-6.6-2.56-13.69.37-19.26A47.52,47.52,0,0,0,34.23,37c.13.59.28,1.17.46,1.74,0,0,0,.1,0,.15s0,.1.05.15l.06.19c0,.08,0,.15.08.22.1.3.21.6.32.89a1.34,1.34,0,0,1,.07.18l.09.21.09.21a1.67,1.67,0,0,0,.08.2,2,2,0,0,0,.1.21l.09.21c.13.27.25.54.39.81l.1.2c0,.06.07.13.11.2.17.32.36.65.55,1l.18.29h0l.18.28.19.29h0c.07.09.13.19.19.28s.29.42.45.62.22.31.34.46l.18.23a.64.64,0,0,1,.1.13l.14.16.1.12.2.24.18.21c.31.35.64.69,1,1l.21.2h0a2.39,2.39,0,0,0,.23.22l0,0,.21.2.21.19.09.08.18.16,0,0c.16.15.33.29.5.43l0,0,.24.19.25.2.31.23.21.15.09.07.22.15,0,0,.26.18.32.21.2.13.06,0,.26.16,0,0,.52.31.14.08.52.29.15.07.17.09.18.09.86.41.18.08.24.11.29.12.36.14.17.07.34.13.24.08.33.12.16,0h0l.35.11.37.11c.19.27.38.53.58.79l.11.15.05,0a1.09,1.09,0,0,0,.13.17l.06.08h0l.16.21c.1.12.2.23.29.35s.11.13.16.19Z"/><path class="cls-3" d="M52.22,24.26C43.66,29.1,40,37.73,46.69,48.53c1.15,1.85,2.27,3.71,3.45,5.38A22.69,22.69,0,0,1,34.23,37a47.52,47.52,0,0,1-1.32-10.1,17.45,17.45,0,0,1,7-7.12A19.37,19.37,0,0,1,60.8,21,26.81,26.81,0,0,0,52.22,24.26Z"/><path class="cls-4" d="M60.8,21a19.37,19.37,0,0,1-1.87,32.52,24.23,24.23,0,0,1-2.61,1.28,22.73,22.73,0,0,1-6.18-.88c-1.18-1.67-2.3-3.53-3.45-5.38-6.73-10.8-6.41-19.4,2.15-24.24C51.64,22.71,57.94,21.46,60.8,21Z"/><path class="cls-5" d="M78.07,42.21a20.85,20.85,0,0,1-6.34,11.35,25.43,25.43,0,0,1-2,1.72A32.54,32.54,0,0,1,66,57.82,13.9,13.9,0,0,1,59.44,60c-3.1.07-5.47-1.5-7.53-3.83a24.42,24.42,0,0,0,4.41-1.37h1.3l.25,0H58l.26,0,.28,0,.17,0,.37,0,.15,0h0l.53-.07.25,0h0l.25,0h0l.18,0,.18,0,.37-.07.32-.07.31-.07.19-.05.57-.14.24-.06.28-.08.17-.05.19-.06.25-.07.25-.08.23-.07.25-.09.39-.13.2-.07.17-.07c.4-.14.8-.3,1.19-.46l.47-.21.22-.09.27-.13.25-.11.11-.06.18-.09.24-.12h0l.24-.12.16-.08.32-.17.63-.35.33-.2.29-.18.08-.05.23-.14.08,0,.29-.19.28-.19.08,0,.57-.4.26-.19.5-.39h0l.5-.41.48-.41.16-.15.31-.28.23-.21.18-.18.06-.06.19-.19h0l.18-.19,0-.06.17-.18,0,0,.18-.19,0,0,.16-.18.16-.18.17-.2,0,0,.15-.18.09-.1.1-.14.12-.15,0,0,.17-.23,0,0,.15-.21.06-.08.11-.16.08-.11.12-.18h0c.06-.09.12-.17.17-.26l0,0,.14-.22,0-.07a2.39,2.39,0,0,1,.13-.21l.15-.27C77.69,42.94,77.89,42.58,78.07,42.21Z"/><path class="cls-6" d="M78.07,42.21A18.35,18.35,0,0,0,76.49,31a24.37,24.37,0,0,0-3.34-5.38,16.38,16.38,0,0,0-1.85-1.87A12.31,12.31,0,0,0,60.8,21c-.46-.33-.92-.64-1.4-.93a19.53,19.53,0,0,0-1.75-.93,17.76,17.76,0,0,0-2.54-1c-.36-.11-.71-.21-1.08-.3h0a19,19,0,0,0-3.28-.52c-.31,0-.63,0-1,0a19.22,19.22,0,0,0-9.92,2.5,17.45,17.45,0,0,0-7,7.12c0-8.86,3.82-16.53,18.55-17,7.4-.25,14.27,1.85,19.48,6.21a3.07,3.07,0,0,0,0,.53A3.14,3.14,0,0,0,74,19.77a3.4,3.4,0,0,0,.45,0,27,27,0,0,1,4.1,7.38A18.55,18.55,0,0,1,78.07,42.21Z"/><path class="cls-7" d="M60.8,21c5.88-1,11.56,1.24,15.69,10a18.35,18.35,0,0,1,1.58,11.2c-3,6.1-9.51,10.42-16.72,12a22.86,22.86,0,0,1-5,.55,24.23,24.23,0,0,0,2.61-1.28A19.37,19.37,0,0,0,60.8,21Z"/><circle class="cls-5" cx="28.82" cy="22.66" r="2.18"/><circle class="cls-6" cx="47.49" cy="60.02" r="1.86"/><path class="cls-4" d="M74.48,19.74a3.4,3.4,0,0,1-.45,0,3.14,3.14,0,0,1-3.14-3.14,3.07,3.07,0,0,1,0-.53A24.92,24.92,0,0,1,74.48,19.74Z"/><path class="cls-2" d="M77.17,16.63a3.15,3.15,0,0,1-2.69,3.11,24.92,24.92,0,0,0-3.54-3.64,3.14,3.14,0,0,1,6.23.53Z"/><path class="cls-1" d="M105,29.67a22.62,22.62,0,0,1-1.37-4.4,25.3,25.3,0,0,1,2.24-1.77A22.71,22.71,0,0,0,105,29.67Z"/><path class="cls-2" d="M103.64,25.27c-.07-.3-.12-.59-.17-.89a19.83,19.83,0,0,1-.06-6.29A16.08,16.08,0,0,1,105,13.17a15.61,15.61,0,0,1,8.59-7.27c6.6-2.51,13.7-2.57,19.27.36a48.66,48.66,0,0,0-10.1,1.32c-.6.13-1.18.29-1.75.46l-.14.05-.15,0-.2.07-.22.07c-.3.11-.59.21-.88.33l-.18.07-.22.09-.2.08-.2.09-.22.09-.2.1q-.42.18-.81.39l-.2.1-.2.1-1,.55-.3.18h0l-.29.18-.28.18h0l-.28.19-.63.44-.45.34-.23.19-.13.1-.17.14-.11.09-.24.21-.21.18c-.35.31-.7.63-1,1l-.21.21h0l-.22.23,0,0-.19.21-.2.22-.08.09-.16.18,0,0-.42.51,0,0-.2.25c-.06.08-.13.16-.19.25l-.24.31a2.43,2.43,0,0,0-.14.2.61.61,0,0,0-.07.1,1.77,1.77,0,0,0-.16.22v0a2,2,0,0,0-.18.26l-.21.31a2.39,2.39,0,0,0-.13.21.21.21,0,0,0,0,.06c-.06.08-.11.17-.16.25l0,0c-.11.17-.21.34-.31.52a.64.64,0,0,0-.08.14c-.1.17-.2.34-.29.52l-.08.15-.09.17a1.3,1.3,0,0,0-.08.17q-.23.44-.42.87a.89.89,0,0,1-.08.17l-.1.24-.12.29-.15.36-.06.18c0,.11-.09.23-.13.34l-.09.23a3.38,3.38,0,0,1-.11.34l0,.15,0,.05c0,.12-.07.23-.11.35s-.07.25-.11.37l-.78.57-.15.12-.06,0-.17.13-.08.06h0l-.2.16-.36.29-.18.16Z"/><path class="cls-3" d="M135.53,25.58C130.7,17,122.07,13.31,111.26,20c-1.84,1.15-3.7,2.27-5.38,3.46a22.75,22.75,0,0,1,16.9-15.92,48.15,48.15,0,0,1,10.11-1.31,17.43,17.43,0,0,1,7.12,7,19.37,19.37,0,0,1-1.2,20.92A26.47,26.47,0,0,0,135.53,25.58Z"/><path class="cls-4" d="M138.81,34.15a19.37,19.37,0,0,1-32.52-1.86A23.49,23.49,0,0,1,105,29.67a22.71,22.71,0,0,1,.87-6.17c1.68-1.19,3.54-2.31,5.38-3.46,10.81-6.73,19.4-6.41,24.24,2.16C137.08,25,138.34,31.29,138.81,34.15Z"/><path class="cls-5" d="M117.59,51.43a20.94,20.94,0,0,1-11.36-6.34c-.59-.63-1.17-1.29-1.71-2A31.63,31.63,0,0,1,102,39.4a13.85,13.85,0,0,1-2.17-6.6c-.07-3.1,1.5-5.47,3.83-7.53a23.32,23.32,0,0,0,1.37,4.4v.69a2.17,2.17,0,0,1,0,.26h0a.92.92,0,0,1,0,.16c0,.06,0,.13,0,.19a2.28,2.28,0,0,0,0,.26v.1c0,.09,0,.17,0,.26l0,.28c0,.05,0,.11,0,.17s0,.24,0,.37a.77.77,0,0,1,0,.15h0c0,.18,0,.36.08.53a1.87,1.87,0,0,0,0,.25v0c0,.09,0,.17,0,.25a0,0,0,0,0,0,0l0,.18,0,.18c0,.13,0,.25.08.38s0,.21.07.31,0,.21.07.32,0,.12,0,.18l.15.58.06.24c0,.09.05.18.08.28a1,1,0,0,0,.05.16l0,.2c0,.08,0,.16.08.24a2.58,2.58,0,0,0,.08.26c0,.08,0,.15.07.23a1.83,1.83,0,0,1,.08.25l.14.39c0,.07,0,.13.07.2l.06.17c.15.4.3.79.47,1.18l.2.48.1.22c0,.09.08.18.13.27a2.56,2.56,0,0,0,.11.24.61.61,0,0,1,0,.12l.09.18.12.24v0l.12.24.09.16.17.31c.11.22.23.43.35.63l.19.33.18.29a.41.41,0,0,1,0,.09l.15.23,0,.08.18.28.19.28.06.08c.13.2.26.39.4.58l.19.25.39.51h0c.13.17.27.33.4.49s.27.33.41.48l.15.17.29.31.2.22.18.18.06.07.2.19h0l.18.18.06.06.18.17,0,0a1.54,1.54,0,0,0,.19.17l0,0,.19.17.17.15.2.17,0,0,.17.15.11.08.13.11.15.12,0,0,.23.18h0l.21.16.07,0,.17.12.1.07.19.13h0l.25.17,0,0,.21.14.08,0,.21.13.26.16C116.86,51.05,117.22,51.24,117.59,51.43Z"/><path class="cls-6" d="M117.59,51.43a18.44,18.44,0,0,0,11.2-1.58,24.8,24.8,0,0,0,5.37-3.34A16.5,16.5,0,0,0,136,44.66a12.36,12.36,0,0,0,2.77-10.51c.33-.45.64-.92.93-1.4a19.36,19.36,0,0,0,.93-1.74,20.15,20.15,0,0,0,1-2.54q.16-.54.3-1.08h0a20,20,0,0,0,.52-3.28c0-.32,0-.63,0-.95a19.35,19.35,0,0,0-2.5-9.93,17.51,17.51,0,0,0-7.12-7c8.86,0,16.52,3.83,17,18.55.24,7.41-1.85,14.27-6.21,19.48a3.19,3.19,0,0,0-.54,0A3.14,3.14,0,0,0,140,47.39a2.12,2.12,0,0,0,0,.44,26.89,26.89,0,0,1-7.38,4.1A18.51,18.51,0,0,1,117.59,51.43Z"/><path class="cls-7" d="M138.81,34.15c1,5.88-1.24,11.56-10,15.7a18.44,18.44,0,0,1-11.2,1.58c-6.11-3-10.43-9.52-12-16.73a22.21,22.21,0,0,1-.55-5,23.49,23.49,0,0,0,1.28,2.62,19.37,19.37,0,0,0,32.52,1.86Z"/><circle class="cls-5" cx="137.13" cy="2.18" r="2.18"/><circle class="cls-6" cx="99.78" cy="20.84" r="1.86"/><path class="cls-4" d="M140.06,47.83a2.12,2.12,0,0,1,0-.44,3.14,3.14,0,0,1,3.14-3.14,3.19,3.19,0,0,1,.54,0A24.4,24.4,0,0,1,140.06,47.83Z"/><path class="cls-2" d="M143.16,50.53a3.13,3.13,0,0,1-3.1-2.7,24.4,24.4,0,0,0,3.64-3.54,3.14,3.14,0,0,1-.54,6.24Z"/></g></g></svg>