<svg xmlns="http://www.w3.org/2000/svg" viewBox="0 0 36.39 31.57"><defs><style>.cls-1,.cls-2,.cls-3,.cls-4,.cls-5{fill:none;stroke-linecap:round;stroke-linejoin:round;}.cls-1{stroke:#fff;}.cls-2{stroke:#0088fd;}.cls-3{stroke:#9246cc;}.cls-4{stroke:#ff6a00;}.cls-5{stroke:#fcd648;}</style></defs><title>Ativo 1</title><g id="Camada_2" data-name="Camada 2"><g id="Camada_1-2" data-name="Camada 1"><path class="cls-1" d="M13.88,22h8.39a2,2,0,0,0,2-2h0a2,2,0,0,0-2-2H8.67a2.87,2.87,0,0,0-2.07.85L3.35,22"/><path class="cls-1" d="M10.07,28.4l14.61-1.84A3.63,3.63,0,0,0,26,26L35,20a2,2,0,0,0,.63-2.74h0a2,2,0,0,0-2.74-.63L25,21.53a3.37,3.37,0,0,1-1.66.48h-9.5"/><path class="cls-1" d="M.5,20.6H1.68a1.41,1.41,0,0,1,1.26.74l4.55,7.47a1.49,1.49,0,0,1-1.26,2.26h0"/><line class="cls-2" x1="13.54" y1="9.86" x2="13.54" y2="6.75"/><line class="cls-3" x1="19.63" y1="11.88" x2="19.63" y2="4.96"/><line class="cls-2" x1="19.63" y1="1.96" x2="19.63" y2="1.96"/><line class="cls-4" x1="19.63" y1="14.88" x2="19.63" y2="14.88"/><line class="cls-2" x1="13.5" y1="12.86" x2="13.5" y2="12.86"/><line class="cls-5" x1="16.66" y1="12.86" x2="16.66" y2="10.75"/><line class="cls-3" x1="13.54" y1="3.74" x2="13.54" y2="3.62"/><line class="cls-4" x1="16.66" y1="7.75" x2="16.66" y2="0.5"/><line class="cls-5" x1="22.89" y1="8.62" x2="22.89" y2="8.62"/><line class="cls-2" x1="22.89" y1="12.86" x2="22.89" y2="11.75"/><line class="cls-5" x1="22.89" y1="5.75" x2="22.89" y2="1.5"/></g></g></svg>