<svg xmlns="http://www.w3.org/2000/svg" viewBox="0 0 854.07 247.21"><defs><style>.cls-1{fill:#37208a;}.cls-2{fill:#0799d8;}.cls-3{fill:#28c2f6;}.cls-4{fill:#9246cc;}.cls-5{fill:#632a98;}.cls-6{fill:#fcd648;}.cls-7{fill:#dc3d01;}.cls-8{fill:#ff6a00;}.cls-11,.cls-9{opacity:0.15;}.cls-10{fill:#fff;}.cls-11{font-size:130.45px;font-family:Quicksand-Bold, Quicksand Bold;font-weight:700;letter-spacing:-0.04em;}</style></defs><title>Ativo 1</title><g id="Camada_2" data-name="Camada 2"><g id="Layer_1" data-name="Layer 1"><path class="cls-1" d="M0,126.05a49,49,0,0,1,3.28-18.69A40,40,0,0,1,11.9,94a36,36,0,0,1,12.27-8.09,38.47,38.47,0,0,1,14.27-2.74q17.07,0,27,10.45t9.92,30.73c0,1.32-.06,2.77-.16,4.35s-.2,3-.3,4.19H23.34a15.09,15.09,0,0,0,6.55,11.14q5.8,4.11,15.56,4.11A65.93,65.93,0,0,0,57.73,147a46,46,0,0,0,9.84-2.82l3.05,18.45a31.51,31.51,0,0,1-4.88,1.83A64.91,64.91,0,0,1,59,166.09c-2.49.45-5.16.84-8,1.14a81.44,81.44,0,0,1-8.54.46,50.48,50.48,0,0,1-18.84-3.21,36.6,36.6,0,0,1-13.27-8.77,34.73,34.73,0,0,1-7.77-13.19A52.15,52.15,0,0,1,0,126.05Zm53.38-8.7a23.33,23.33,0,0,0-1-5.64,13.66,13.66,0,0,0-7-8.39A14.51,14.51,0,0,0,38.74,102a15.17,15.17,0,0,0-6.56,1.3,13.52,13.52,0,0,0-4.57,3.43,15.22,15.22,0,0,0-2.82,5,31.26,31.26,0,0,0-1.45,5.71Z"/><path class="cls-1" d="M112.56,83.19a52.53,52.53,0,0,1,16.78,2.29A26,26,0,0,1,140.09,92a24,24,0,0,1,5.72,10.37A51.09,51.09,0,0,1,147.49,116v47.28q-4.87,1.08-13.57,2.52a130.08,130.08,0,0,1-21,1.45,67.07,67.07,0,0,1-14.11-1.37,30.81,30.81,0,0,1-10.91-4.5,20.6,20.6,0,0,1-7-8.16,28.16,28.16,0,0,1-2.44-12.36A23.41,23.41,0,0,1,81.22,129a21.66,21.66,0,0,1,7.55-7.78A34.27,34.27,0,0,1,99.6,117a60.94,60.94,0,0,1,12.66-1.29,72.88,72.88,0,0,1,7.85.38,34.29,34.29,0,0,1,5.57,1v-2.14a12.57,12.57,0,0,0-3.51-9.3q-3.51-3.51-12.2-3.51a77.52,77.52,0,0,0-11.44.84,48.81,48.81,0,0,0-9.76,2.37L85.87,87c1.32-.4,3-.84,5-1.29s4.14-.87,6.48-1.22,4.8-.66,7.4-.92S109.92,83.19,112.56,83.19Zm1.83,66.5c2.24,0,4.37-.05,6.41-.15a45,45,0,0,0,4.88-.46V131.84c-.92-.2-2.29-.4-4.12-.61a46.64,46.64,0,0,0-5-.3,45.78,45.78,0,0,0-6,.38,15.88,15.88,0,0,0-5,1.45,8.44,8.44,0,0,0-3.36,2.9,8.08,8.08,0,0,0-1.22,4.57c0,3.56,1.2,6,3.58,7.4S110.22,149.69,114.39,149.69Z"/><path class="cls-1" d="M182,149.23c4.17,0,7.12-.4,8.85-1.22s2.59-2.39,2.59-4.73q0-2.75-3.36-4.8a63.7,63.7,0,0,0-10.22-4.65,105.15,105.15,0,0,1-9.68-4.12,28.37,28.37,0,0,1-7.4-5.11,20.76,20.76,0,0,1-4.73-7.09,26.26,26.26,0,0,1-1.67-9.92q0-11.28,8.38-17.84t23-6.56a73.42,73.42,0,0,1,14,1.3,64.46,64.46,0,0,1,10.67,2.82l-4,17.69a82.39,82.39,0,0,0-8.62-2.44,46.91,46.91,0,0,0-10.45-1.07q-10.67,0-10.67,6a6.21,6.21,0,0,0,.45,2.44,5.29,5.29,0,0,0,1.83,2.06,25.43,25.43,0,0,0,3.74,2.14q2.37,1.15,6,2.54a93.65,93.65,0,0,1,12.35,5.46,29.4,29.4,0,0,1,7.7,5.81,17.93,17.93,0,0,1,4,6.93,30.8,30.8,0,0,1,1.14,8.82q0,11.88-8.92,18t-25.24,6.09a71.29,71.29,0,0,1-27.61-4.88L158,144.35a74.81,74.81,0,0,0,11.9,3.59A58.12,58.12,0,0,0,182,149.23Z"/><path class="cls-1" d="M295.13,85.32q-6.88,23.19-14.37,43.47T264.4,168.15A90.28,90.28,0,0,1,258,179.81a35.58,35.58,0,0,1-7,7.93,24.66,24.66,0,0,1-8.63,4.58,38.92,38.92,0,0,1-11.22,1.45,46,46,0,0,1-9.86-1,43.87,43.87,0,0,1-7.4-2.21l4-18.15a38.59,38.59,0,0,0,6.26,1.67,34.69,34.69,0,0,0,5.8.46q6.1,0,9.38-3.28a26.26,26.26,0,0,0,5.57-9.07Q237,146.95,229.25,128A422.65,422.65,0,0,1,214.6,85.32h24.1q1.53,6,3.6,12.89t4.36,14q2.29,7.1,4.68,13.81t4.52,12.2q2-5.49,4.13-12.2t4.21-13.81q2.07-7.08,4-14t3.45-12.89Z"/><path class="cls-2" d="M422.05,215.32a114.22,114.22,0,0,1-21.33,5.59,130.77,130.77,0,0,1-7.94-11.11A108.18,108.18,0,0,0,422.05,215.32Z"/><path class="cls-3" d="M400.73,220.91c-1.42.22-2.84.42-4.26.59a94.17,94.17,0,0,1-30-1.08,75.32,75.32,0,0,1-23.13-8.78c-14.44-8.5-26.2-22.38-32.84-42.56-10.55-32-9.3-65.9,5.89-91.86-.64,15.78,1.29,32.46,4.11,48.49q.75,4.28,1.82,8.41l.18.7c.07.24.13.48.2.72s.17.64.26,1,.2.71.31,1.06c.42,1.45.88,2.89,1.36,4.31.1.28.19.57.29.85l.37,1.05c.12.33.25.67.37,1l.36,1c.14.35.27.7.41,1.06s.27.67.4,1c.54,1.33,1.1,2.64,1.69,3.94l.45,1c.15.33.3.65.46,1q1.14,2.41,2.41,4.74c.26.49.52,1,.79,1.46l0,0c.26.48.53.95.8,1.42s.55.93.83,1.39a.08.08,0,0,0,0,0l.84,1.38c.65,1,1.31,2.06,2,3.07.5.75,1,1.5,1.53,2.24l.83,1.15.46.63.61.83.44.57.91,1.19.82,1q2.12,2.64,4.4,5.14l.95,1h0l1,1.09.2.21c.31.32.63.65.95,1s.65.66,1,1l.42.41.83.8.16.15q1.14,1.08,2.31,2.13l.16.15,1.14,1c.38.32.75.65,1.14,1s.95.8,1.43,1.2l.94.75.44.35c.34.27.67.53,1,.78l.11.09,1.21.91L364,195l.94.67a2.83,2.83,0,0,0,.28.2l1.19.82.14.1c.8.54,1.6,1.07,2.42,1.58l.65.42c.81.51,1.62,1,2.44,1.49l.7.41.79.46.8.45q2,1.13,4.05,2.16l.82.41,1.12.55,1.36.64,1.67.77.84.36c.53.24,1.06.46,1.59.68l1.1.45,1.57.62.73.27a1.45,1.45,0,0,0,.22.09q.83.32,1.65.6l1.74.61c.85,1.31,1.7,2.6,2.57,3.86.17.26.35.51.52.76l.19.26.59.84.28.39h0l.72,1c.43.6.88,1.18,1.32,1.76l.71.93C400,220.05,400.38,220.48,400.73,220.91Z"/><path class="cls-4" d="M409.09,68.75C367.18,90,347.67,130.36,377.45,183.38c5.09,9,10,18.17,15.33,26.42a108.53,108.53,0,0,1-72.31-84.09c-2.83-16-4.75-32.72-4.11-48.49a83.24,83.24,0,0,1,34.8-32.46A92.51,92.51,0,0,1,450.72,55C437,56.6,422.81,61.8,409.09,68.75Z"/><path class="cls-5" d="M450.72,55a92.56,92.56,0,0,1-15.93,154.8,119.69,119.69,0,0,1-12.74,5.55,108.18,108.18,0,0,1-29.27-5.52c-5.31-8.25-10.24-17.38-15.33-26.42-29.78-53-26.41-93.95,15.5-115.2C406.67,61.23,437,56.6,450.72,55Z"/><path class="cls-6" d="M528.58,160c-4.47,19.87-15.92,38.14-32.71,52.82a124.94,124.94,0,0,1-9.84,7.76,158.42,158.42,0,0,1-18.21,11.31c-12.43,6.49-22.93,9.15-32,8.95-14.79-.34-25.76-8.35-35.1-19.9a115.1,115.1,0,0,0,21.32-5.59h.33l1.29,0c.55,0,1.09,0,1.64,0l1.27,0h1.69l1.2,0H430l1.25,0,1.33-.06.82,0,1.77-.12.74-.05h.05c.85-.07,1.7-.14,2.55-.23l1.21-.14h.09l1.2-.14.14,0,.87-.12.87-.12,1.81-.28,1.51-.25,1.51-.28.9-.17c.93-.18,1.86-.37,2.78-.57l1.14-.25,1.37-.31.8-.2.94-.22,1.19-.31,1.24-.32,1.09-.3,1.21-.34,1.91-.56c.32-.1.64-.19.95-.3l.83-.26c1.94-.61,3.87-1.27,5.77-2,.77-.28,1.55-.57,2.32-.88l1.05-.41,1.33-.54,1.18-.49.56-.24.88-.38,1.17-.52.1,0,1.16-.53.8-.37,1.53-.73q1.56-.76,3.09-1.56c.54-.28,1.08-.56,1.61-.85l1.43-.78.41-.23,1.12-.64.4-.22,1.4-.83,1.38-.84.39-.23c.95-.6,1.89-1.2,2.82-1.81l1.27-.85,2.49-1.74h0c.83-.59,1.64-1.2,2.44-1.81s1.6-1.23,2.39-1.87l.83-.67,1.53-1.28c.37-.32.74-.63,1.1-1s.61-.53.91-.8l.32-.29.95-.87.07-.06.9-.85.27-.25.85-.83.21-.21.87-.87.15-.15c.28-.28.56-.56.83-.85l.77-.81.86-.92.13-.14c.25-.28.5-.55.74-.83l.44-.48.54-.62.59-.69.14-.16.87-1,.08-.1.79-1,.28-.35c.19-.24.39-.49.58-.75s.26-.32.38-.49.43-.57.64-.85c0,0,0,0,0,0l.85-1.16a.83.83,0,0,0,.08-.12l.72-1,.24-.36c.23-.32.44-.64.66-1s.55-.82.81-1.23Q527.14,162.55,528.58,160Z"/><path class="cls-7" d="M528.58,160c3.86-17.16,2.51-35.51-5.12-53.79a117.44,117.44,0,0,0-14.8-26.36,76.6,76.6,0,0,0-8.42-9.36C485.56,56.72,468.46,52.87,450.72,55q-3.15-2.51-6.48-4.72a94.16,94.16,0,0,0-8.14-4.83,93.17,93.17,0,0,0-11.9-5.23q-2.52-.9-5.08-1.65h0a92.19,92.19,0,0,0-15.53-3.17c-1.51-.18-3-.32-4.54-.42a92,92,0,0,0-47.89,9.81,83.24,83.24,0,0,0-34.8,32.46c1.71-42.29,21.81-78,92.17-77.21,35.39.42,67.71,11.91,91.63,33.83a15,15,0,0,0,14,18.2,15.36,15.36,0,0,0,2.15-.06,127.8,127.8,0,0,1,18,36.1C543,115.69,539.67,140.09,528.58,160Z"/><path class="cls-8" d="M450.72,55c28.27-3.35,54.9,8.43,72.74,51.21,7.62,18.28,9,36.63,5.12,53.79-15.88,28.48-47.66,47.69-82.41,53.81a109,109,0,0,1-24.12,1.54,119.69,119.69,0,0,0,12.74-5.55A92.56,92.56,0,0,0,450.72,55Z"/><circle class="cls-6" cx="297.77" cy="56.08" r="10.4"/><circle class="cls-7" cx="378.79" cy="238.35" r="8.86"/><path class="cls-5" d="M516.28,52a15.36,15.36,0,0,1-2.15.06,15,15,0,0,1-14-18.2A118.15,118.15,0,0,1,516.28,52Z"/><path class="cls-3" d="M529.79,37.73A15,15,0,0,1,516.28,52a118.15,118.15,0,0,0-16.12-18.14,15,15,0,0,1,29.63,3.89Z"/><path class="cls-9" d="M380.1,136a33.37,33.37,0,0,0,3.49,7.64q.46.76,1,1.5l.51.71a36.38,36.38,0,0,0,6.79,7.23l.3.24c.45.36.91.7,1.38,1a35.16,35.16,0,0,0,21.57,7h.12a12.61,12.61,0,0,1,0,25.21q-26.69-1.23-43.74-18.29a59.43,59.43,0,0,1-18-43h0v-1a59.45,59.45,0,0,1,18-43Q388.54,64.25,415.22,63a12.59,12.59,0,0,1,8.9,21.51,12.14,12.14,0,0,1-8.9,3.7h-.12a35.16,35.16,0,0,0-21.57,7c-.47.33-.93.68-1.38,1-.1.08-.2.15-.3.24a36.33,36.33,0,0,0-6.79,7.22l-.51.72c-.33.49-.65,1-1,1.49a33.56,33.56,0,0,0-3.49,7.64,36.42,36.42,0,0,0,0,22.43ZM453,161.1a12.54,12.54,0,1,1,3.7-8.89A12.16,12.16,0,0,1,453,161.1Zm0-51.4a12.55,12.55,0,1,1,3.7-8.9A12.16,12.16,0,0,1,453,109.7Z"/><path class="cls-10" d="M384.11,134a33.6,33.6,0,0,0,3.5,7.64c.3.5.62,1,.95,1.49l.51.72a36.62,36.62,0,0,0,6.79,7.22c.1.09.21.16.31.24.45.36.91.71,1.37,1a35.2,35.2,0,0,0,21.57,7h.13a12.61,12.61,0,0,1,0,25.21q-26.7-1.25-43.75-18.29a59.47,59.47,0,0,1-18-43h0v-1a59.48,59.48,0,0,1,18-43Q392.55,62.25,419.24,61a12.58,12.58,0,0,1,8.89,21.5,12.12,12.12,0,0,1-8.89,3.71h-.13a35.2,35.2,0,0,0-21.57,7c-.46.34-.92.68-1.37,1l-.31.24a36.68,36.68,0,0,0-6.79,7.23l-.51.71c-.33.49-.65,1-.95,1.5a33.4,33.4,0,0,0-3.5,7.64,36.42,36.42,0,0,0,0,22.43ZM457,159.1a12.53,12.53,0,1,1,3.71-8.9A12.14,12.14,0,0,1,457,159.1Zm0-51.41a12.52,12.52,0,1,1,3.71-8.9A12.15,12.15,0,0,1,457,107.69Z"/><text class="cls-11" transform="translate(461.46 160.95)">o</text><path class="cls-10" d="M541,124.11A36.74,36.74,0,0,1,536.24,143a34.24,34.24,0,0,1-12.79,12.72,37.55,37.55,0,0,1-35.87,0A34.14,34.14,0,0,1,474.8,143,36.65,36.65,0,0,1,470,124.11a36.65,36.65,0,0,1,4.77-18.85,34.59,34.59,0,0,1,12.78-12.78,37,37,0,0,1,35.87,0,34.69,34.69,0,0,1,12.79,12.78A36.74,36.74,0,0,1,541,124.11Zm-15.66,0a23.77,23.77,0,0,0-2.67-11.55,19.9,19.9,0,0,0-7.17-7.63,19.55,19.55,0,0,0-20,0,19.93,19.93,0,0,0-7.18,7.63,23.77,23.77,0,0,0-2.67,11.55,23.43,23.43,0,0,0,2.67,11.41,19.86,19.86,0,0,0,7.18,7.63,19.55,19.55,0,0,0,20,0,19.83,19.83,0,0,0,7.17-7.63A23.43,23.43,0,0,0,525.34,124.11Z"/><path class="cls-8" d="M586.79,87.84q9.65,0,14.67,4a20.57,20.57,0,0,1,6.92,10.76,55.51,55.51,0,0,1,1.89,14.94V151a7.83,7.83,0,0,1-2.22,5.68,8,8,0,0,1-11.22,0,7.83,7.83,0,0,1-2.22-5.68V117.59a25.4,25.4,0,0,0-1.11-7.77,10.73,10.73,0,0,0-4-5.54q-2.88-2.09-8.22-2.09a17.28,17.28,0,0,0-8.81,2.09,14.29,14.29,0,0,0-5.48,5.54,16,16,0,0,0-1.89,7.77V151a7.83,7.83,0,0,1-2.22,5.68,8,8,0,0,1-11.21,0,7.79,7.79,0,0,1-2.22-5.68V97.11a7.79,7.79,0,0,1,2.22-5.68,8,8,0,0,1,11.21,0,7.83,7.83,0,0,1,2.22,5.68v5.61l-2-.4a26.59,26.59,0,0,1,3.4-4.76,32.46,32.46,0,0,1,5.21-4.76,26.6,26.6,0,0,1,6.79-3.59A24,24,0,0,1,586.79,87.84Z"/><path class="cls-8" d="M623.44,90.45h30.92a7.13,7.13,0,0,1,7.3,7.31,6.74,6.74,0,0,1-2.08,5,7.22,7.22,0,0,1-5.22,2H623.44a7.11,7.11,0,0,1-7.3-7.3,6.69,6.69,0,0,1,2.08-5A7.2,7.2,0,0,1,623.44,90.45Zm14-16.3a7.27,7.27,0,0,1,5.54,2.28,7.92,7.92,0,0,1,2.15,5.67v58.05a5.65,5.65,0,0,0,.72,3,4.1,4.1,0,0,0,2,1.7,6.76,6.76,0,0,0,2.67.52,6.91,6.91,0,0,0,2.87-.58,7.11,7.11,0,0,1,3-.59,4.42,4.42,0,0,1,3.33,1.69,6.85,6.85,0,0,1,1.5,4.7q0,3.66-4,6a16.47,16.47,0,0,1-8.54,2.35,44.11,44.11,0,0,1-6.07-.46,16.37,16.37,0,0,1-6.26-2.21,13.53,13.53,0,0,1-4.89-5.42q-2-3.65-2-10V82.1a7.79,7.79,0,0,1,8-7.95Z"/><path class="cls-8" d="M703,160.24q-11.1,0-19.25-4.63A31.91,31.91,0,0,1,671.25,143a36.78,36.78,0,0,1-4.37-18q0-11.73,4.76-20A33.77,33.77,0,0,1,684.1,92.28a32.14,32.14,0,0,1,16.31-4.44A29.81,29.81,0,0,1,713,90.58a34.7,34.7,0,0,1,10.5,7.5,36.71,36.71,0,0,1,7.24,11,33.54,33.54,0,0,1,2.67,13.3,6.69,6.69,0,0,1-2.48,5.09,8.26,8.26,0,0,1-5.48,2H675.62l-3.91-13.05h47.87L716.71,119V115.5a11.85,11.85,0,0,0-2.67-6.78,17.58,17.58,0,0,0-6-4.77,17.18,17.18,0,0,0-7.63-1.76,24.6,24.6,0,0,0-7.31,1,14,14,0,0,0-5.87,3.52,17,17,0,0,0-3.91,6.65A32.93,32.93,0,0,0,681.88,124a22.74,22.74,0,0,0,2.94,11.93,20,20,0,0,0,17.41,10,30.42,30.42,0,0,0,7.7-.78,17.2,17.2,0,0,0,4.63-1.89c1.17-.74,2.24-1.37,3.2-1.89a10,10,0,0,1,4.43-1.18,6.57,6.57,0,0,1,6.65,6.53c0,2.34-1.21,4.48-3.65,6.39a30.17,30.17,0,0,1-9.52,5A37.82,37.82,0,0,1,703,160.24Z"/><path class="cls-8" d="M779.2,87.84q9.64,0,14.67,4a20.57,20.57,0,0,1,6.92,10.76,55.51,55.51,0,0,1,1.89,14.94V151a7.83,7.83,0,0,1-2.22,5.68,8,8,0,0,1-11.22,0A7.83,7.83,0,0,1,787,151V117.59a25.4,25.4,0,0,0-1.11-7.77,10.73,10.73,0,0,0-4-5.54q-2.88-2.09-8.22-2.09a17.28,17.28,0,0,0-8.81,2.09,14.29,14.29,0,0,0-5.48,5.54,16,16,0,0,0-1.89,7.77V151a7.83,7.83,0,0,1-2.22,5.68,8,8,0,0,1-11.21,0,7.83,7.83,0,0,1-2.22-5.68V97.11a7.83,7.83,0,0,1,2.22-5.68,8,8,0,0,1,11.21,0,7.83,7.83,0,0,1,2.22,5.68v5.61l-2-.4a26.59,26.59,0,0,1,3.4-4.76,32.46,32.46,0,0,1,5.21-4.76A26.6,26.6,0,0,1,771,89.21,24,24,0,0,1,779.2,87.84Z"/><path class="cls-8" d="M815.85,90.45h30.92a7.13,7.13,0,0,1,7.3,7.31,6.71,6.71,0,0,1-2.08,5,7.22,7.22,0,0,1-5.22,2H815.85a7.11,7.11,0,0,1-7.3-7.3,6.69,6.69,0,0,1,2.08-5A7.2,7.2,0,0,1,815.85,90.45Zm14-16.3a7.27,7.27,0,0,1,5.54,2.28,7.92,7.92,0,0,1,2.15,5.67v58.05a5.65,5.65,0,0,0,.72,3,4.1,4.1,0,0,0,2,1.7,6.76,6.76,0,0,0,2.67.52,6.91,6.91,0,0,0,2.87-.58,7.11,7.11,0,0,1,3-.59,4.42,4.42,0,0,1,3.33,1.69,6.85,6.85,0,0,1,1.5,4.7q0,3.66-4,6a16.47,16.47,0,0,1-8.54,2.35,44.11,44.11,0,0,1-6.07-.46,16.37,16.37,0,0,1-6.26-2.21,13.53,13.53,0,0,1-4.89-5.42q-2-3.65-2-10V82.1a7.79,7.79,0,0,1,8-7.95Z"/></g></g></svg>