<svg xmlns="http://www.w3.org/2000/svg" viewBox="0 0 539.26 247.18"><defs><style>.cls-1{fill:#37208a;}.cls-2{fill:#0799d8;}.cls-3{fill:#28c2f6;}.cls-4{fill:#9246cc;}.cls-5{fill:#632a98;}.cls-6{fill:#fcd648;}.cls-7{fill:#dc3d01;}.cls-8{fill:#ff6a00;}.cls-9{opacity:0.15;isolation:isolate;}.cls-10{fill:#fff;}</style></defs><title>Ativo 1</title><g id="Camada_2" data-name="Camada 2"><g id="Camada_1-2" data-name="Camada 1"><g id="Camada_2-2" data-name="Camada 2"><g id="Layer_1" data-name="Layer 1"><path class="cls-1" d="M0,126a49.13,49.13,0,0,1,3.28-18.69A40,40,0,0,1,11.91,94a36.13,36.13,0,0,1,12.27-8.09,38.52,38.52,0,0,1,14.27-2.74q17.07,0,27,10.45t9.92,30.73c0,1.32-.06,2.77-.16,4.35s-.2,3-.3,4.19H23.35A15.08,15.08,0,0,0,29.9,144q5.81,4.11,15.56,4.11A64.89,64.89,0,0,0,57.74,147a45.39,45.39,0,0,0,9.84-2.82l3,18.45a30.16,30.16,0,0,1-4.88,1.83A62.39,62.39,0,0,1,59,166.06c-2.49.45-5.16.84-8,1.14a78.68,78.68,0,0,1-8.54.46,50.46,50.46,0,0,1-18.84-3.21,36.59,36.59,0,0,1-13.27-8.77,34.73,34.73,0,0,1-7.77-13.19A52,52,0,0,1,0,126Zm53.38-8.7a23.51,23.51,0,0,0-1-5.64,13.64,13.64,0,0,0-7-8.39A14.6,14.6,0,0,0,38.75,102a15.24,15.24,0,0,0-6.56,1.3,13.65,13.65,0,0,0-4.57,3.43,15.38,15.38,0,0,0-2.82,5,31.45,31.45,0,0,0-1.45,5.71Z"/><path class="cls-1" d="M112.57,83.16a52.67,52.67,0,0,1,16.78,2.29A26,26,0,0,1,140.1,92a24.06,24.06,0,0,1,5.72,10.37A51,51,0,0,1,147.5,116v47.28q-4.87,1.08-13.57,2.52a129.46,129.46,0,0,1-21,1.45,66.19,66.19,0,0,1-14.11-1.37,30.74,30.74,0,0,1-10.91-4.5,20.63,20.63,0,0,1-7-8.16,28.11,28.11,0,0,1-2.44-12.36A23.45,23.45,0,0,1,81.23,129a21.73,21.73,0,0,1,7.55-7.78A34.35,34.35,0,0,1,99.61,117a61.19,61.19,0,0,1,12.66-1.29,76.26,76.26,0,0,1,7.85.38,35.16,35.16,0,0,1,5.57,1v-2.14a12.56,12.56,0,0,0-3.51-9.3q-3.51-3.51-12.2-3.51a78.23,78.23,0,0,0-11.44.84,49.47,49.47,0,0,0-9.76,2.37L85.88,87c1.32-.4,3-.84,5-1.29s4.14-.87,6.48-1.22,4.8-.66,7.4-.92A77.94,77.94,0,0,1,112.57,83.16Zm1.83,66.5c2.24,0,4.37,0,6.41-.15a44.49,44.49,0,0,0,4.88-.46V131.81c-.92-.2-2.29-.4-4.12-.61a44.77,44.77,0,0,0-11,.08,16.23,16.23,0,0,0-5,1.45,8.42,8.42,0,0,0-3.36,2.9A8.1,8.1,0,0,0,101,140.2c0,3.56,1.2,6,3.58,7.4S110.23,149.66,114.4,149.66Z"/><path class="cls-1" d="M182,149.2c4.17,0,7.12-.4,8.85-1.22s2.59-2.39,2.59-4.73q0-2.75-3.36-4.8a64.48,64.48,0,0,0-10.22-4.65,104.12,104.12,0,0,1-9.68-4.12,28.35,28.35,0,0,1-7.4-5.11,20.72,20.72,0,0,1-4.73-7.09,26.22,26.22,0,0,1-1.67-9.92q0-11.28,8.38-17.84t23-6.56a73.84,73.84,0,0,1,14,1.3,65.5,65.5,0,0,1,10.67,2.82l-4,17.69a82.94,82.94,0,0,0-8.62-2.44,47.66,47.66,0,0,0-10.45-1.07q-10.67,0-10.67,6a6.33,6.33,0,0,0,.45,2.44A5.27,5.27,0,0,0,181,112a24.75,24.75,0,0,0,3.74,2.14q2.37,1.16,6,2.54a94.39,94.39,0,0,1,12.35,5.46,29.57,29.57,0,0,1,7.7,5.81,17.87,17.87,0,0,1,4,6.93,30.57,30.57,0,0,1,1.14,8.82q0,11.88-8.92,18t-25.24,6.09a71.22,71.22,0,0,1-27.61-4.88L158,144.32a73.78,73.78,0,0,0,11.9,3.59A57.24,57.24,0,0,0,182,149.2Z"/><path class="cls-1" d="M295.14,85.29q-6.88,23.19-14.37,43.47t-16.36,39.36a89.15,89.15,0,0,1-6.4,11.66,35.28,35.28,0,0,1-7,7.93,24.52,24.52,0,0,1-8.63,4.58,38.68,38.68,0,0,1-11.22,1.45,45.39,45.39,0,0,1-9.86-1,42.53,42.53,0,0,1-7.4-2.21l4-18.15a38.79,38.79,0,0,0,6.26,1.67,34.2,34.2,0,0,0,5.8.46q6.1,0,9.38-3.28a26.24,26.24,0,0,0,5.57-9.07Q237,146.92,229.26,128a422,422,0,0,1-14.65-42.68h24.1q1.53,6,3.6,12.89t4.36,14q2.29,7.11,4.68,13.81t4.52,12.2q2-5.49,4.13-12.2t4.21-13.81q2.07-7.08,4-14t3.45-12.89Z"/><path class="cls-2" d="M422.06,215.29a113.91,113.91,0,0,1-21.33,5.59,129.56,129.56,0,0,1-7.94-11.11A108.22,108.22,0,0,0,422.06,215.29Z"/><path class="cls-3" d="M400.74,220.88c-1.42.22-2.84.42-4.26.59a94.13,94.13,0,0,1-30-1.08,75.29,75.29,0,0,1-23.13-8.78c-14.44-8.5-26.2-22.38-32.84-42.56-10.55-32-9.3-65.9,5.89-91.86-.64,15.78,1.29,32.46,4.11,48.49q.75,4.29,1.82,8.41l.18.7c.07.24.13.48.2.72s.17.64.26,1,.2.71.31,1.06c.42,1.45.88,2.89,1.36,4.31.1.28.19.57.29.85l.37,1.05.37,1,.36,1c.14.35.27.7.41,1.06l.4,1c.54,1.33,1.1,2.64,1.69,3.94l.45,1,.46,1q1.14,2.41,2.41,4.74c.26.49.52,1,.79,1.46h0c.26.48.53,1,.8,1.42s.55.93.83,1.39h0l.84,1.38c.65,1,1.31,2.06,2,3.07.5.75,1,1.5,1.53,2.24l.83,1.15.46.63.61.83.44.57.91,1.19.82,1c1.41,1.76,2.88,3.48,4.4,5.14l.95,1h0l1,1.09.2.21c.31.32.63.65.95,1s.65.66,1,1l.42.41.83.8.16.15q1.14,1.08,2.31,2.13l.16.15,1.14,1c.38.32.75.65,1.14,1s.95.8,1.43,1.2l.94.75.44.35,1,.78.11.09,1.21.91,1.51,1,.94.67a1.79,1.79,0,0,0,.28.2l1.19.82.14.1c.8.54,1.6,1.07,2.42,1.58l.65.42c.81.51,1.62,1,2.44,1.49l.7.41.79.46.8.45q2,1.14,4.05,2.16l.82.41,1.12.55,1.36.64,1.67.77.84.36c.53.24,1.06.46,1.59.68l1.1.45,1.57.62.73.27a1,1,0,0,0,.22.09q.82.33,1.65.6l1.74.61c.85,1.31,1.7,2.6,2.57,3.86.17.26.35.51.52.76l.19.26.59.84.28.39h0l.72,1c.43.6.88,1.18,1.32,1.76l.71.93C400,220,400.39,220.45,400.74,220.88Z"/><path class="cls-4" d="M409.1,68.72C367.19,90,347.68,130.33,377.46,183.35c5.09,9,10,18.17,15.33,26.42a108.52,108.52,0,0,1-72.31-84.09c-2.83-16-4.75-32.72-4.11-48.49a83.31,83.31,0,0,1,34.8-32.46A92.52,92.52,0,0,1,450.73,55C437,56.57,422.82,61.77,409.1,68.72Z"/><path class="cls-5" d="M450.73,55a92.55,92.55,0,0,1-15.93,154.8,117.94,117.94,0,0,1-12.74,5.55,108.22,108.22,0,0,1-29.27-5.52c-5.31-8.25-10.24-17.38-15.33-26.42-29.78-53-26.41-93.95,15.5-115.2C406.68,61.2,437,56.57,450.73,55Z"/><path class="cls-6" d="M528.59,160c-4.47,19.87-15.92,38.14-32.71,52.82a124.68,124.68,0,0,1-9.84,7.76,157.42,157.42,0,0,1-18.21,11.31c-12.43,6.49-22.93,9.15-32,8.95-14.79-.34-25.76-8.35-35.1-19.9a114.58,114.58,0,0,0,21.32-5.59h9.21l1.33-.06h.82l1.77-.12.74,0H436c.85-.07,1.7-.14,2.55-.23l1.21-.14h.09l1.2-.14h.14l.87-.12.87-.12,1.81-.28,1.51-.25,1.51-.28.9-.17c.93-.18,1.86-.37,2.78-.57l1.14-.25,1.37-.31.8-.2.94-.22,1.19-.31,1.24-.32,1.09-.3,1.21-.34,1.91-.56c.32-.1.64-.19.95-.3l.83-.26c1.94-.61,3.87-1.27,5.77-2,.77-.28,1.55-.57,2.32-.88l1.05-.41,1.33-.54,1.18-.49.56-.24.88-.38,1.17-.52h.1l1.16-.53.8-.37,1.53-.73q1.56-.75,3.09-1.56c.54-.28,1.08-.56,1.61-.85l1.43-.78.41-.23,1.12-.64.4-.22,1.4-.83,1.38-.84.39-.23c.95-.6,1.89-1.2,2.82-1.81l1.27-.85,2.49-1.74h0c.83-.59,1.64-1.2,2.44-1.81s1.6-1.23,2.39-1.87l.83-.67,1.53-1.28c.37-.32.74-.63,1.1-1s.61-.53.91-.8l.32-.29.95-.87.07-.06.9-.85.27-.25.85-.83.21-.21.87-.87.15-.15c.28-.28.56-.56.83-.85l.77-.81.86-.92.13-.14c.25-.28.5-.55.74-.83l.44-.48.54-.62.59-.69.14-.16.87-1,.08-.1.79-1,.28-.35c.19-.24.39-.49.58-.75s.26-.32.38-.49.43-.57.64-.85h0l.85-1.16a.36.36,0,0,0,.08-.12l.72-1,.24-.36c.23-.32.44-.64.66-1s.55-.82.81-1.23Q527.16,162.53,528.59,160Z"/><path class="cls-7" d="M528.59,160c3.86-17.16,2.51-35.51-5.12-53.79a117.82,117.82,0,0,0-14.8-26.36,77,77,0,0,0-8.42-9.36C485.57,56.69,468.47,52.84,450.73,55q-3.15-2.51-6.48-4.72-3.94-2.61-8.14-4.83a94,94,0,0,0-11.9-5.23q-2.52-.9-5.08-1.65h0a92.4,92.4,0,0,0-15.53-3.17c-1.51-.18-3-.32-4.54-.42a92,92,0,0,0-47.89,9.81,83.31,83.31,0,0,0-34.8,32.46c1.71-42.29,21.81-78,92.17-77.21,35.39.42,67.71,11.91,91.63,33.83a15,15,0,0,0,11.44,17.87,14.7,14.7,0,0,0,2.56.33,15.4,15.4,0,0,0,2.15-.06,127.93,127.93,0,0,1,18,36.1C543,115.66,539.68,140.06,528.59,160Z"/><path class="cls-8" d="M450.73,55c28.27-3.35,54.9,8.43,72.74,51.21,7.62,18.28,9,36.63,5.12,53.79-15.88,28.48-47.66,47.69-82.41,53.81a108.31,108.31,0,0,1-24.12,1.54,117.94,117.94,0,0,0,12.74-5.55A92.56,92.56,0,0,0,450.73,55Z"/><circle class="cls-6" cx="297.78" cy="56.05" r="10.4"/><circle class="cls-7" cx="378.8" cy="238.32" r="8.86"/><path class="cls-5" d="M516.29,52a15.4,15.4,0,0,1-2.15.06A15,15,0,0,1,499.81,36.4a14.82,14.82,0,0,1,.33-2.57A118.4,118.4,0,0,1,516.29,52Z"/><path class="cls-3" d="M529.8,37.7A15,15,0,0,1,516.29,52a118.74,118.74,0,0,0-16.12-18.14,15,15,0,0,1,29.63,3.89Z"/><path class="cls-9" d="M380.11,136a33.4,33.4,0,0,0,3.49,7.64c.31.51.64,1,1,1.5l.51.71a36.38,36.38,0,0,0,6.79,7.23l.3.24a16.06,16.06,0,0,0,1.38,1,35.14,35.14,0,0,0,21.57,7h.12a12.61,12.61,0,0,1,0,25.21q-26.68-1.23-43.74-18.29a59.43,59.43,0,0,1-18-43h0v-1a59.5,59.5,0,0,1,18-43q17-17,43.7-18.24a12.59,12.59,0,0,1,8.9,21.51,12.13,12.13,0,0,1-8.9,3.7h-.12a35.2,35.2,0,0,0-21.57,7c-.47.33-.93.68-1.38,1-.1.08-.2.15-.3.24a36.6,36.6,0,0,0-6.79,7.22l-.51.72c-.33.49-.65,1-1,1.49a33.6,33.6,0,0,0-3.49,7.64,36.42,36.42,0,0,0,0,22.43Zm72.9,25.1a12.54,12.54,0,1,1,3.7-8.89A12.14,12.14,0,0,1,453,161.07Zm0-51.4a12.55,12.55,0,1,1,3.7-8.9A12.13,12.13,0,0,1,453,109.67Z"/><path class="cls-10" d="M384.12,134a33.44,33.44,0,0,0,3.5,7.64c.3.5.62,1,.95,1.49l.51.72a36.35,36.35,0,0,0,6.79,7.22c.1.09.21.16.31.24a15.37,15.37,0,0,0,1.37,1,35.2,35.2,0,0,0,21.57,7h.13a12.61,12.61,0,0,1,0,25.21q-26.7-1.25-43.75-18.29a59.46,59.46,0,0,1-18-43h0v-1a59.5,59.5,0,0,1,18-43q17.06-17,43.75-18.23a12.58,12.58,0,0,1,8.89,21.5,12.1,12.1,0,0,1-8.89,3.71h-.13a35.2,35.2,0,0,0-21.57,7l-1.37,1-.31.24a37,37,0,0,0-6.79,7.23l-.51.71c-.33.49-.65,1-.95,1.5a33.63,33.63,0,0,0-3.5,7.64,36.42,36.42,0,0,0,0,22.43ZM457,159.07a12.53,12.53,0,1,1,3.71-8.9A12.12,12.12,0,0,1,457,159.07Zm0-51.41a12.52,12.52,0,1,1,3.71-8.9A12.18,12.18,0,0,1,457,107.66Z"/></g></g></g></g></svg>