<svg xmlns="http://www.w3.org/2000/svg" viewBox="0 0 251.88 247.18"><defs><style>.cls-1{fill:#0799d8;}.cls-2{fill:#28c2f6;}.cls-3{fill:#9246cc;}.cls-4{fill:#632a98;}.cls-5{fill:#fcd648;}.cls-6{fill:#dc3d01;}.cls-7{fill:#ff6a00;}.cls-8{opacity:0.15;isolation:isolate;}.cls-9{fill:#fff;}</style></defs><title>Ativo 2</title><g id="Camada_2" data-name="Camada 2"><g id="Camada_1-2" data-name="Camada 1"><g id="Camada_2-2" data-name="Camada 2"><g id="Layer_1" data-name="Layer 1"><path class="cls-1" d="M134.68,215.29a113.91,113.91,0,0,1-21.33,5.59,129.56,129.56,0,0,1-7.94-11.11A108.22,108.22,0,0,0,134.68,215.29Z"/><path class="cls-2" d="M113.36,220.88c-1.42.22-2.84.42-4.26.59a94.13,94.13,0,0,1-30-1.08A75.29,75.29,0,0,1,56,211.61c-14.44-8.5-26.2-22.38-32.84-42.56-10.55-32-9.3-65.9,5.89-91.86-.64,15.78,1.29,32.46,4.11,48.49q.75,4.29,1.82,8.41l.18.7c.07.24.13.48.2.72s.17.64.26,1,.2.71.31,1.06c.42,1.45.88,2.89,1.36,4.31.1.28.19.57.29.85l.37,1.05.37,1,.36,1c.14.35.27.7.41,1.06l.4,1c.54,1.33,1.1,2.64,1.69,3.94l.45,1,.46,1q1.14,2.41,2.41,4.74c.26.49.52,1,.79,1.46h0c.26.48.53,1,.8,1.42s.55.93.83,1.39h0l.84,1.38c.65,1,1.31,2.06,2,3.07.5.75,1,1.5,1.53,2.24l.83,1.15.46.63.61.83.44.57.91,1.19.82,1c1.41,1.76,2.88,3.48,4.4,5.14l1,1h0l1,1.09.2.21c.31.32.63.65.95,1s.65.66,1,1l.42.41.83.8.16.15q1.14,1.08,2.31,2.13l.16.15,1.14,1c.38.32.75.65,1.14,1s1,.8,1.43,1.2l.94.75.44.35,1,.78.11.09,1.21.91,1.51,1,.94.67a1.79,1.79,0,0,0,.28.2l1.19.82.14.1c.8.54,1.6,1.07,2.42,1.58l.65.42c.81.51,1.62,1,2.44,1.49l.7.41.79.46.8.45q2,1.14,4,2.16l.82.41,1.12.55,1.36.64,1.67.77.84.36c.53.24,1.06.46,1.59.68l1.1.45,1.57.62.73.27a.85.85,0,0,0,.22.09q.83.33,1.65.6l1.74.61c.85,1.31,1.7,2.6,2.57,3.86.17.26.35.51.52.76l.19.26.59.84.28.39h0l.72,1c.43.6.88,1.18,1.32,1.76l.71.93C112.63,220,113,220.45,113.36,220.88Z"/><path class="cls-3" d="M121.72,68.72C79.81,90,60.3,130.33,90.08,183.35c5.09,9,10,18.17,15.33,26.42A108.52,108.52,0,0,1,33.1,125.68C30.27,109.68,28.35,93,29,77.19a83.31,83.31,0,0,1,34.8-32.46A92.52,92.52,0,0,1,163.35,55C149.63,56.57,135.44,61.77,121.72,68.72Z"/><path class="cls-4" d="M163.35,55a92.55,92.55,0,0,1-15.93,154.8,118.81,118.81,0,0,1-12.74,5.55,108.22,108.22,0,0,1-29.27-5.52c-5.31-8.25-10.24-17.38-15.33-26.42-29.78-53-26.41-93.95,15.5-115.2C119.3,61.2,149.63,56.57,163.35,55Z"/><path class="cls-5" d="M241.21,160c-4.47,19.87-15.92,38.14-32.71,52.82a124.68,124.68,0,0,1-9.84,7.76,157.42,157.42,0,0,1-18.21,11.31c-12.43,6.49-22.93,9.15-32,8.95-14.79-.34-25.76-8.35-35.1-19.9a114.58,114.58,0,0,0,21.32-5.59h9.21l1.33-.06H146l1.77-.12.74,0h.05c.85-.07,1.7-.14,2.55-.23l1.21-.14h.09l1.2-.14h.14l.87-.12.87-.12,1.81-.28,1.51-.25,1.51-.28.9-.17c.93-.18,1.86-.37,2.78-.57l1.14-.25,1.37-.31.8-.2.94-.22,1.19-.31,1.24-.32,1.09-.3,1.21-.34,1.91-.56c.32-.1.64-.19,1-.3l.83-.26c1.94-.61,3.87-1.27,5.77-2,.77-.28,1.55-.57,2.32-.88l1.05-.41,1.33-.54,1.18-.49.56-.24.88-.38L191,204h.1l1.16-.53.8-.37,1.53-.73q1.56-.75,3.09-1.56c.54-.28,1.08-.56,1.61-.85l1.43-.78.41-.23,1.12-.64.4-.22,1.4-.83,1.38-.84.39-.23c.95-.6,1.89-1.2,2.82-1.81l1.27-.85,2.49-1.74h0c.83-.59,1.64-1.2,2.44-1.81s1.6-1.23,2.39-1.87l.83-.67,1.53-1.28c.37-.32.74-.63,1.1-1s.61-.53.91-.8l.32-.29,1-.87.07-.06.9-.85.27-.25.85-.83.21-.21.87-.87.15-.15c.28-.28.56-.56.83-.85l.77-.81.86-.92.13-.14c.25-.28.5-.55.74-.83l.44-.48.54-.62.59-.69.14-.16.87-1,.08-.1.79-1,.28-.35c.19-.24.39-.49.58-.75s.26-.32.38-.49.43-.57.64-.85h0l.85-1.16a.36.36,0,0,0,.08-.12l.72-1,.24-.36c.23-.32.44-.64.66-1s.55-.82.81-1.23Q239.78,162.53,241.21,160Z"/><path class="cls-6" d="M241.21,160c3.86-17.16,2.51-35.51-5.12-53.79a117.82,117.82,0,0,0-14.8-26.36,77.81,77.81,0,0,0-8.42-9.36C198.19,56.69,181.09,52.84,163.35,55q-3.15-2.51-6.48-4.72-3.94-2.61-8.14-4.83a94,94,0,0,0-11.9-5.23q-2.52-.9-5.08-1.65h0a92.4,92.4,0,0,0-15.53-3.17c-1.51-.18-3-.32-4.54-.42a92,92,0,0,0-47.89,9.81A83.31,83.31,0,0,0,29,77.22C30.7,34.93,50.8-.78,121.16,0c35.39.42,67.71,11.91,91.63,33.83a15,15,0,0,0,11.44,17.87,14.7,14.7,0,0,0,2.56.33,15.4,15.4,0,0,0,2.15-.06,127.93,127.93,0,0,1,18,36.1C255.63,115.66,252.3,140.06,241.21,160Z"/><path class="cls-7" d="M163.35,55c28.27-3.35,54.9,8.43,72.74,51.21,7.62,18.28,9,36.63,5.12,53.79-15.88,28.48-47.66,47.69-82.41,53.81a108.31,108.31,0,0,1-24.12,1.54,118.81,118.81,0,0,0,12.74-5.55A92.56,92.56,0,0,0,163.35,55Z"/><circle class="cls-5" cx="10.4" cy="56.05" r="10.4"/><circle class="cls-6" cx="91.42" cy="238.32" r="8.86"/><path class="cls-4" d="M228.91,52a15.4,15.4,0,0,1-2.15.06A15,15,0,0,1,212.43,36.4a14.82,14.82,0,0,1,.33-2.57A118.93,118.93,0,0,1,228.91,52Z"/><path class="cls-2" d="M242.42,37.7A15,15,0,0,1,228.91,52a118.74,118.74,0,0,0-16.12-18.14,15,15,0,0,1,29.63,3.89Z"/><path class="cls-8" d="M92.73,136a33.4,33.4,0,0,0,3.49,7.64c.31.51.64,1,1,1.5l.51.71a36.38,36.38,0,0,0,6.79,7.23l.3.24a16.06,16.06,0,0,0,1.38,1,35.12,35.12,0,0,0,21.57,7h.12a12.61,12.61,0,0,1,0,25.21q-26.69-1.23-43.74-18.29a59.39,59.39,0,0,1-18-43h0v-1a59.5,59.5,0,0,1,18-43q17-17,43.7-18.24a12.59,12.59,0,0,1,8.9,21.51,12.13,12.13,0,0,1-8.9,3.7h-.12a35.18,35.18,0,0,0-21.57,7c-.47.33-.93.68-1.38,1-.1.08-.2.15-.3.24a36.6,36.6,0,0,0-6.79,7.22l-.51.72c-.33.49-.65,1-1,1.49a33.6,33.6,0,0,0-3.49,7.64,36.42,36.42,0,0,0,0,22.43Zm72.9,25.1a12.53,12.53,0,1,1,3.7-8.89A12.18,12.18,0,0,1,165.63,161.07Zm0-51.4a12.55,12.55,0,1,1,3.7-8.9A12.13,12.13,0,0,1,165.63,109.67Z"/><path class="cls-9" d="M96.74,134a33.44,33.44,0,0,0,3.5,7.64c.3.5.62,1,1,1.49l.51.72a36.35,36.35,0,0,0,6.79,7.22c.1.09.21.16.31.24a15.37,15.37,0,0,0,1.37,1,35.18,35.18,0,0,0,21.57,7h.13a12.61,12.61,0,0,1,0,25.21q-26.7-1.25-43.75-18.29a59.46,59.46,0,0,1-18-43h0v-1a59.5,59.5,0,0,1,18-43q17.05-17,43.75-18.23a12.58,12.58,0,0,1,8.89,21.5,12.1,12.1,0,0,1-8.89,3.71h-.13a35.18,35.18,0,0,0-21.57,7l-1.37,1-.31.24a37,37,0,0,0-6.79,7.23l-.51.71c-.33.49-.65,1-1,1.5a33.63,33.63,0,0,0-3.5,7.64,36.42,36.42,0,0,0,0,22.43Zm72.89,25.1a12.53,12.53,0,1,1,3.71-8.9A12.12,12.12,0,0,1,169.63,159.07Zm0-51.41a12.52,12.52,0,1,1,3.71-8.9A12.18,12.18,0,0,1,169.63,107.66Z"/></g></g></g></g></svg>